<?xml version="1.0" standalone="no"?>
<!DOCTYPE svg PUBLIC "-//W3C//DTD SVG 1.1//EN" "http://www.w3.org/Graphics/SVG/1.1/DTD/svg11.dtd" >
<svg xmlns="http://www.w3.org/2000/svg" xmlns:xlink="http://www.w3.org/1999/xlink" version="1.1">
<metadata>
Created by FontForge 20200314 at Tue Sep 25 20:52:53 2012
 By Unknown
Copyright (c) 2012 by Fernando Diaz. All rights reserved.
</metadata>
<defs>
<font id="Fenix" horiz-adv-x="506" >
  <font-face 
    font-family="Fenix"
    font-weight="400"
    font-stretch="normal"
    units-per-em="1000"
    panose-1="2 0 5 3 0 0 0 2 0 3"
    ascent="750"
    descent="-250"
    x-height="450"
    cap-height="650"
    bbox="-16 -238 1013.2 879"
    underline-thickness="58"
    underline-position="-198"
    unicode-range="U+0020-FB04"
  />
<missing-glyph horiz-adv-x="568" 
d="M186 469l-37 -37l98 -98l-99 -99l37 -37l99 98l99 -98l37 37l-99 99l98 98l-37 37l-98 -98zM50 0v680h468v-680h-468z" />
    <glyph glyph-name="ff" unicode="ff" horiz-adv-x="587" 
d="M180 404v-354l69 -28l-6 -22h-214l-6 22l45 19q18 7 24.5 15t6.5 23v324l-70 -1l-6 22l76 34q0 98 60 161t149 68q72 5 165 -24q21 11 48 18q38 6 61 4.5t32 -5.5l7 -21l-14 -49q-33 6 -67 7q-46 1 -72 -12q-14 -30 -14 -125v-30h109l11 -12l-10 -38l-110 4v-343l94 -39
l-6 -22h-239l-6 22l45 19q18 7 24.5 15t6.5 23v322zM199 596q-19 -30 -19 -146h193q0 98 40 158q-38 16 -108.5 14.5t-105.5 -26.5z" />
    <glyph glyph-name="fi" unicode="fi" horiz-adv-x="552" 
d="M180 404v-350l79 -32l-6 -22h-224l-6 22l45 19q18 7 24.5 15t6.5 23v324l-70 -1l-6 22l76 34q2 99 58 164.5t154 65.5q102 0 162 -72l-60 -53l-18 5q-13 20 -42 37t-66 18q-60 2 -88 -21q-19 -30 -19 -152l264 8l20 -8v-396l79 -32l-6 -22h-224l-6 22l45 19q18 7 24.5 15
t6.5 23v322z" />
    <glyph glyph-name="fl" unicode="fl" horiz-adv-x="554" 
d="M180 404v-350l79 -32l-6 -22h-224l-6 22l45 19q18 7 24.5 15t6.5 23v324l-70 -1l-6 22l76 34q0 96 60.5 160.5t137.5 68.5q58 3 111 -11l36 12l20 -8v-626l79 -32l-6 -22h-224l-6 22l45 19q18 7 24.5 15t6.5 23v527q-23 6 -57 10t-72.5 -0.5t-54.5 -19.5
q-19 -30 -19 -146h109l11 -12l-10 -38z" />
    <glyph glyph-name="ffi" unicode="ffi" horiz-adv-x="826" 
d="M180 404v-354l69 -28l-6 -22h-214l-6 22l45 19q18 7 24.5 15t6.5 23v324l-70 -1l-6 22l76 34q0 98 60 161t149 68q72 5 165 -24q48 25 110 25q104 0 164 -72l-60 -53l-18 5q-13 20 -42 37t-66 18q-60 2 -88 -21q-19 -30 -19 -152l264 8l20 -8v-396l79 -32l-6 -22h-224
l-6 22l45 19q18 7 24.5 15t6.5 23v322l-203 3v-350l79 -32l-6 -22h-224l-6 22l45 19q18 7 24.5 15t6.5 23v322zM199 596q-19 -30 -19 -146h193q0 98 40 158q-39 16 -109 14.5t-105 -26.5z" />
    <glyph glyph-name="ffl" unicode="ffl" horiz-adv-x="828" 
d="M180 404v-354l69 -28l-6 -22h-214l-6 22l45 19q18 7 24.5 15t6.5 23v324l-70 -1l-6 22l76 34q0 98 60 161t149 68q76 5 174 -27q44 23 89 26q65 5 111 -10l36 12l20 -8v-626l79 -32l-6 -22h-224l-6 22l45 19q18 7 24.5 15t6.5 23v527q-23 6 -57 10t-72.5 -0.5
t-54.5 -19.5q-19 -30 -19 -146h109l11 -12l-10 -38l-110 4v-350l79 -32l-6 -22h-224l-6 22l45 19q18 7 24.5 15t6.5 23v322zM199 596q-19 -30 -19 -146h193q0 93 47 155q-46 17 -115.5 17t-105.5 -26z" />
    <glyph glyph-name="fj" unicode="fj" horiz-adv-x="521" 
d="M180 404v-350l79 -32l-6 -22h-224l-6 22l45 19q18 7 24.5 15t6.5 23v324l-70 -1l-6 22l76 34q2 99 58 164.5t154 65.5q102 0 162 -72l-60 -53l-18 5q-13 20 -42 37t-66 18q-60 2 -88 -21q-19 -30 -19 -152l254 8l20 -8v-450q0 -80 -38.5 -140.5t-104.5 -97.5l-14 18
q76 89 76 212v409z" />
    <glyph glyph-name="ffj" unicode="ffj" horiz-adv-x="795" 
d="M180 404v-354l69 -28l-6 -22h-214l-6 22l45 19q18 7 24.5 15t6.5 23v324l-70 -1l-6 22l76 34q0 98 60 161t149 68q72 5 165 -24q48 25 110 25q104 0 164 -72l-60 -53l-18 5q-13 20 -42 37t-66 18q-60 2 -88 -21q-19 -30 -19 -152l254 8l20 -8v-450q0 -80 -38.5 -140.5
t-104.5 -97.5l-14 18q76 89 76 212v409l-193 3v-350l79 -32l-6 -22h-224l-6 22l45 19q18 7 24.5 15t6.5 23v322zM199 596q-19 -30 -19 -146h193q0 98 40 158q-39 16 -109 14.5t-105 -26.5z" />
    <glyph glyph-name=".notdef" horiz-adv-x="568" 
d="M186 469l-37 -37l98 -98l-99 -99l37 -37l99 98l99 -98l37 37l-99 99l98 98l-37 37l-98 -98zM50 0v680h468v-680h-468z" />
    <glyph glyph-name=".null" horiz-adv-x="0" 
 />
    <glyph glyph-name="nonmarkingreturn" horiz-adv-x="333" 
 />
    <glyph glyph-name="space" unicode=" " horiz-adv-x="220" 
 />
    <glyph glyph-name="exclam" unicode="!" horiz-adv-x="245" 
d="M71 678l92 10l12 -11l-34 -486l-25 -4l-13 2zM69 47q0 23 15.5 39t39.5 16q23 0 39 -16t16 -39q0 -24 -16 -39.5t-39 -15.5q-24 0 -39.5 15.5t-15.5 39.5z" />
    <glyph glyph-name="quotedbl" unicode="&#x22;" horiz-adv-x="321" 
d="M45 670l76 10l12 -11l-28 -207l-34 -4zM190 670l76 10l12 -11l-28 -207l-34 -4z" />
    <glyph glyph-name="numbersign" unicode="#" horiz-adv-x="599" 
d="M58 412l18 39h118l24 177l56 10l11 -11l-27 -176l119 2l23 175l56 10l11 -11l-27 -173l120 2l9 -12l-18 -47q-51 0 -119 1l-20 -147l119 2l9 -12l-17 -46q-51 0 -119 1l-22 -174l-57 -10l-10 11q5 34 13.5 90.5t12.5 82.5q-39 1 -118 1l-23 -175l-57 -10l-10 11l26 174
q-56 1 -120 1l-9 12l17 39h120l21 150q-56 1 -120 1zM250 399l-20 -150q41 1 119 1l20 148q-39 1 -119 1z" />
    <glyph glyph-name="dollar" unicode="$" horiz-adv-x="461" 
d="M329 455l-10 85q-25 14 -81 14q-74 0 -102 -33q-13 -16 -13 -40q0 -63 66 -85l112 -38q66 -22 100 -72t26 -107q-9 -57 -55 -90.5t-113 -40.5l13 -125l-60 -10l-12 11l13 123q-65 3 -112.5 27.5t-70.5 51.5l59 95l24 -6l4 -82q45 -28 118 -28q103 0 114 68q11 70 -91 102
l-109 37q-48 16 -74.5 53.5t-26.5 88.5q0 69 46.5 108t115.5 46l-11 117l60 10l12 -11l-11 -115q87 -5 155 -70l-63 -91z" />
    <glyph glyph-name="percent" unicode="%" horiz-adv-x="709" 
d="M456 164q0 -117 85 -117q32 0 54 11q18 39 18 94q0 118 -84 118q-32 0 -54 -11q-19 -40 -19 -95zM394 145q0 82 43.5 127t105.5 45q56 0 94.5 -39.5t38.5 -115.5q0 -81 -43 -121.5t-106 -40.5q-58 0 -95.5 35t-37.5 110zM96 497q0 -117 85 -117q32 0 54 11q18 39 18 94
q0 118 -84 118q-32 0 -54 -11q-19 -40 -19 -95zM34 478q0 82 43.5 127t105.5 45q56 0 94.5 -39.5t38.5 -115.5q0 -81 -43 -121.5t-106 -40.5q-58 0 -95.5 35t-37.5 110zM608 638l12 -11q-242 -307 -458 -600l-64 -15l-12 11q242 307 458 600z" />
    <glyph glyph-name="ampersand" unicode="&#x26;" horiz-adv-x="679" 
d="M387 323l12 39q52 0 113.5 2t97.5 4l35 2l11 -12l-11 -52q-84 2 -155 3q54 -51 53 -120q-2 -59 -56 -112q33 -34 60.5 -45t64.5 -6l2 -26l-98 -40q-40 19 -91 73q-76 -41 -168 -41q-91 0 -153 41t-62 118q0 58 34.5 102.5t95.5 90.5q-45 59 -65 98t-20 79q0 66 50 101.5
t121 35.5q66 0 109.5 -31.5t47.5 -84.5q7 -82 -91 -155l-54 -40l94 -119q6 -7 22.5 -28.5t34 -43.5t32.5 -41q26 29 28 66q3 47 -23 84.5t-60 45.5zM288 196l-84 108q-28 -21 -51.5 -54t-26.5 -70q-5 -57 40.5 -96.5t117.5 -37.5q57 2 106 24q-31 36 -102 126zM156 545
q0 -32 20 -67.5t64 -91.5l51 42q55 45 51 94q-3 31 -26 55t-67 27q-48 4 -81 -17q-12 -16 -12 -42z" />
    <glyph glyph-name="quotesingle" unicode="'" horiz-adv-x="176" 
d="M45 670l76 10l12 -11l-28 -207l-34 -4z" />
    <glyph glyph-name="parenleft" unicode="(" horiz-adv-x="285" 
d="M37 292q0 87 20.5 165t48 127t63 90t56 57.5t36.5 26.5l14 -17q-157 -179 -157 -442q0 -271 157 -450l-14 -17q-20 13 -38 27.5t-55.5 56t-63 88.5t-46.5 124t-21 164z" />
    <glyph glyph-name="parenright" unicode=")" horiz-adv-x="285" 
d="M248 292q0 -87 -21 -164t-46.5 -124t-63 -88.5t-55.5 -56t-38 -27.5l-14 17q157 179 157 450q0 263 -157 442l14 17q16 -10 36.5 -26.5t56 -57.5t63 -90t48 -127t20.5 -165z" />
    <glyph glyph-name="asterisk" unicode="*" horiz-adv-x="443" 
d="M203 688h37l15 -142l138 32l13 -33l-132 -61l73 -122l-29 -21l-96 105l-97 -105l-29 21l73 122l-132 61l13 33l138 -32z" />
    <glyph glyph-name="plus" unicode="+" horiz-adv-x="509" 
d="M30 309l12 45h183q1 63 1 189l45 12l12 -11v-190l184 2l11 -12l-11 -49q-88 0 -183 1l1 -188l-49 -11l-12 11q1 82 1 188q-88 1 -184 1z" />
    <glyph glyph-name="comma" unicode="," horiz-adv-x="211" 
d="M51 77l56 26h20q13 -13 23.5 -38.5t10.5 -51.5q0 -43 -29.5 -80t-72.5 -60l-16 18q57 45 57 93q0 42 -46 73z" />
    <glyph glyph-name="hyphen" unicode="-" horiz-adv-x="398" 
d="M60 217l12 39q52 0 116 2t102 4l38 2l11 -12l-11 -52q-227 5 -257 5z" />
    <glyph glyph-name="period" unicode="." horiz-adv-x="214" 
d="M52 47q0 23 15.5 39t39.5 16q23 0 39 -16t16 -39q0 -24 -16 -39.5t-39 -15.5q-24 0 -39.5 15.5t-15.5 39.5z" />
    <glyph glyph-name="slash" unicode="/" horiz-adv-x="416" 
d="M323 701l59 10l12 -11q-162 -383 -301 -721l-59 -10l-12 11q115 270 301 721z" />
    <glyph glyph-name="zero" unicode="0" horiz-adv-x="590" 
d="M142 338q0 -129 39 -206.5t123 -77.5q54 0 97 24q48 75 48 234q0 129 -39 206.5t-123 77.5q-54 0 -97 -24q-48 -75 -48 -234zM49 327q0 152 62.5 241.5t180.5 89.5q123 0 186.5 -93.5t63.5 -241.5q0 -151 -65.5 -241t-184.5 -90q-121 0 -182 93t-61 242z" />
    <glyph glyph-name="one" unicode="1" horiz-adv-x="350" 
d="M30 553l183 105l19 -8v-589l96 -39l-6 -22h-275l-6 22l75 31q18 7 24.5 15t6.5 23v454q-65 -6 -111 -14z" />
    <glyph glyph-name="two" unicode="2" horiz-adv-x="514" 
d="M45 0l-12 44q182 158 248 243t66 164q0 63 -33 98t-96 35q-54 0 -86 -15l-5 -84l-24 -7l-65 90q10 11 30.5 28t72 39.5t103.5 22.5q85 0 140.5 -52.5t55.5 -136.5q0 -43 -17.5 -88t-40.5 -80t-66.5 -81t-74 -74t-83.5 -75l236 2l47 86l30 -7l-10 -152h-416z" />
    <glyph glyph-name="three" unicode="3" horiz-adv-x="490" 
d="M431 487q0 -52 -27 -93.5t-72 -67.5q49 -19 78.5 -59t29.5 -89q0 -77 -74.5 -131.5t-208.5 -54.5q-62 0 -94 8l-11 19l16 62q61 -16 127 -16q87 0 138 23q18 26 18 71q0 48 -28 87.5t-82 46.5q-53 -8 -90 4l-11 12l10 38q36 8 87 6q105 23 105 116q0 52 -34 85.5
t-104 33.5q-52 0 -87 -15l-5 -84l-24 -7l-60 100q91 76 204 76q87 0 143 -48.5t56 -122.5z" />
    <glyph glyph-name="four" unicode="4" 
d="M294 640l62 18l20 -8q0 -54 3 -405l92 3l11 -12l-11 -64h-69q-23 0 -23 -22l2 -150l-77 -8l-12 11q3 71 3 167h-270l-14 42zM295 264l1 269l-195 -293h172q22 0 22 24z" />
    <glyph glyph-name="five" unicode="5" horiz-adv-x="466" 
d="M135 579l-7 -152q278 -13 299 -197q12 -105 -62.5 -171.5t-191.5 -66.5q-73 0 -123 25l-11 19l17 59q124 -53 239 -18q26 17 44 52.5t11 82.5q-22 137 -273 134l-11 12l13 292q67 0 144.5 2t121.5 4l44 2l11 -12l-13 -71q-153 4 -252 4z" />
    <glyph glyph-name="six" unicode="6" horiz-adv-x="511" 
d="M409 625q-108 -39 -175 -101.5t-89 -175.5q61 41 141 41q51 0 90 -17t61 -46t32.5 -63t10.5 -72q0 -95 -62.5 -147t-155.5 -52q-118 0 -171.5 83t-42.5 215q7 88 39 155.5t82 109.5t106 66.5t122 36.5zM259 320q-73 0 -122 -37q-7 -102 25.5 -164.5t116.5 -62.5
q48 1 85 15q29 35 29 102q0 75 -35.5 111t-98.5 36z" />
    <glyph glyph-name="seven" unicode="7" horiz-adv-x="458" 
d="M443 650l12 -44q-93 -151 -151 -290.5t-100 -314.5l-85 -9l-20 8q66 190 127.5 317t150.5 262l-273 -2l-47 -86l-30 7l10 152h406z" />
    <glyph glyph-name="eight" unicode="8" horiz-adv-x="523" 
d="M263 658q85 0 140 -45.5t55 -113.5q0 -51 -32.5 -93t-89.5 -67q140 -59 140 -174q0 -76 -59.5 -124.5t-160.5 -48.5q-95 0 -151 43t-56 115q0 63 39.5 107t89.5 66q-55 22 -86 64.5t-31 96.5q0 75 56.5 124.5t145.5 49.5zM133 166q0 -55 37.5 -83.5t96.5 -28.5
q68 0 110 25q19 26 19 73q0 45 -31 76.5t-125 68.5q-107 -54 -107 -131zM257 596q-58 0 -97 -23q-19 -29 -19 -73q0 -42 25.5 -71.5t105.5 -63.5q102 52 102 127q0 50 -33 77t-84 27z" />
    <glyph glyph-name="nine" unicode="9" horiz-adv-x="509" 
d="M102 25q53 21 89.5 40.5t75.5 51.5t64 79t36 108q-62 -42 -141 -42q-99 0 -147 57.5t-48 136.5q0 92 62.5 147t154.5 55q114 0 168.5 -84t44.5 -219q-5 -73 -28.5 -132t-56.5 -97t-79 -66t-89 -43t-94 -25zM251 331q67 0 124 37q13 226 -147 226q-47 0 -79 -15
q-31 -38 -31 -104q0 -73 35.5 -108.5t97.5 -35.5z" />
    <glyph glyph-name="colon" unicode=":" horiz-adv-x="228" 
d="M59 403q0 23 15.5 39t39.5 16q23 0 39 -16t16 -39q0 -24 -16 -39.5t-39 -15.5q-24 0 -39.5 15.5t-15.5 39.5zM59 47q0 23 15.5 39t39.5 16q23 0 39 -16t16 -39q0 -24 -16 -39.5t-39 -15.5q-24 0 -39.5 15.5t-15.5 39.5z" />
    <glyph glyph-name="semicolon" unicode=";" horiz-adv-x="235" 
d="M65 77l56 26h20q13 -13 23.5 -38.5t10.5 -51.5q0 -43 -29.5 -80t-72.5 -60l-16 18q57 45 57 93q0 42 -46 73zM65 403q0 23 15.5 39t39.5 16q23 0 39 -16t16 -39q0 -24 -16 -39.5t-39 -15.5q-24 0 -39.5 15.5t-15.5 39.5z" />
    <glyph glyph-name="less" unicode="&#x3c;" horiz-adv-x="447" 
d="M37 342l324 203l15 -7l14 -39l-275 -184l271 -182l1 -16l-26 -32l-331 207v17z" />
    <glyph glyph-name="equal" unicode="=" horiz-adv-x="536" 
d="M65 389l12 45l385 2l11 -12l-11 -49q-355 2 -386 2zM65 229l12 45l385 2l11 -12l-11 -49q-355 2 -386 2z" />
    <glyph glyph-name="greater" unicode="&#x3e;" horiz-adv-x="447" 
d="M410 288l-324 -203l-15 7l-14 39l275 184l-271 182l-1 16l26 32l331 -207v-17z" />
    <glyph glyph-name="question" unicode="?" horiz-adv-x="392" 
d="M171 268l-8 -86l-38 -2l-14 138q96 41 134 73t38 89q0 64 -33 93q-32 12 -90 12q-66 0 -119 -17l-11 54l11 18q36 18 97 18q96 0 159.5 -49t63.5 -134q0 -72 -48 -119t-142 -88zM95 48q0 24 15.5 39.5t39.5 15.5t39.5 -16t15.5 -39t-16 -39t-40 -16q-23 0 -38.5 15.5
t-15.5 39.5z" />
    <glyph glyph-name="at" unicode="@" horiz-adv-x="974" 
d="M692 450q-38 -344 -38 -355q0 -27 17 -41.5t46 -14.5q68 0 105.5 71t37.5 172q0 151 -86 245.5t-235 94.5q-174 0 -293 -124t-119 -323q0 -168 88.5 -259.5t230.5 -91.5q117 0 225 56l15 -29q-16 -13 -41 -28t-89 -35.5t-130 -20.5q-54 0 -105.5 12t-103 40.5t-90.5 72
t-63 112t-24 154.5q0 95 29 178.5t79.5 145t117 106.5t142.5 67.5t154 22.5q172 0 277 -103.5t105 -276.5q0 -81 -24.5 -143.5t-64 -96t-80.5 -50t-81 -16.5q-43 0 -72 18.5t-39 49.5q-28 -28 -69.5 -48t-82.5 -20q-68 0 -103 54.5t-35 138.5q0 113 61 193t171 80
q55 0 109 -13l39 13zM577 106l30 274q-40 19 -96 19q-38 0 -81 -15q-27 -30 -40.5 -81t-13.5 -103q0 -73 26 -108.5t69 -35.5q58 0 106 50z" />
    <glyph glyph-name="A" unicode="A" horiz-adv-x="636" 
d="M464 83l-45 127h-232l-53 -153l86 -35l-6 -22h-221l-6 22l55 23q17 7 21.5 13t11.5 25l200 557l61 18l20 -8l215 -596l78 -32l-6 -22h-245l-6 22l55 23q27 11 17 38zM302 542l-98 -281h197z" />
    <glyph glyph-name="B" unicode="B" horiz-adv-x="617" 
d="M40 0l-6 22l55 23q18 7 24.5 15t6.5 23v510l-86 35l6 22q195 8 256 8q249 0 249 -169q0 -101 -91 -150q121 -42 121 -167q0 -45 -17.5 -78.5t-44.5 -52.5t-67.5 -30.5t-78 -15t-84.5 -3.5q-43 0 -243 8zM329 305h-97q-27 0 -27 -25v-227q26 -4 99 -4q81 0 139 18
q39 30 39 98q0 140 -153 140zM314 603h-82q-27 0 -27 -25v-218q26 -4 91 -4q71 0 120 20q36 27 36 90q0 60 -31.5 98.5t-106.5 38.5z" />
    <glyph glyph-name="C" unicode="C" horiz-adv-x="591" 
d="M350 -8q-133 0 -218.5 87t-85.5 241q0 162 93 250t223 88q46 0 84 -11.5t60.5 -29.5t32.5 -29t16 -21l-65 -90l-24 7l-5 94q-46 16 -110 16q-77 0 -126 -22q-90 -84 -90 -238q0 -135 70 -207.5t177 -72.5q81 0 167 43l15 -29q-26 -26 -82.5 -51t-131.5 -25z" />
    <glyph glyph-name="D" unicode="D" horiz-adv-x="706" 
d="M40 0l-6 22l55 23q18 7 24.5 15t6.5 23v510l-86 35l6 22q226 8 284 8q334 0 334 -342q0 -178 -94.5 -251t-298.5 -73q-25 0 -225 8zM339 603h-107q-27 0 -27 -25v-525q39 -4 100 -4q132 0 198 43q62 76 62 216q0 137 -58 216t-168 79z" />
    <glyph glyph-name="E" unicode="E" horiz-adv-x="545" 
d="M205 568v-216q47 0 103.5 3t89.5 6l32 3l11 -12l-11 -56q-119 7 -225 7v-251l217 4l48 88l30 -7v-137h-460l-6 22l55 23q18 7 24.5 15t6.5 23v510l-86 35l6 22h455v-137l-30 -7l-48 88l-185 4q-27 0 -27 -30z" />
    <glyph glyph-name="F" unicode="F" horiz-adv-x="527" 
d="M205 306v-248l89 -36l-6 -22h-248l-6 22l55 23q18 7 24.5 15t6.5 23v510l-86 35l6 22h465v-137l-30 -7l-48 88l-195 4q-27 0 -27 -31v-208h160l32 69l22 -6v-186l-22 -6l-19 45q-7 18 -15 24.5t-23 6.5h-135z" />
    <glyph glyph-name="G" unicode="G" horiz-adv-x="663" 
d="M573 200v-145q-89 -63 -212 -63q-139 0 -227.5 85t-88.5 241q0 86 29 153.5t78 107t107.5 59.5t122.5 20q140 0 199 -91l-65 -90l-24 7l-5 94q-46 16 -116 16q-85 0 -134 -22q-103 -91 -103 -240q0 -137 73.5 -207.5t191.5 -70.5q30 0 55 4q37 7 37 37v130l-86 32l6 22
h224l7 -26l-38 -15q-18 -7 -24.5 -15t-6.5 -23z" />
    <glyph glyph-name="H" unicode="H" horiz-adv-x="733" 
d="M613 567v-510l86 -35l-6 -22h-245l-6 22l55 23q18 7 24.5 15t6.5 23v221h-323v-247l86 -35l-6 -22h-245l-6 22l55 23q18 7 24.5 15t6.5 23v510l-86 35l6 22h245l6 -22l-55 -23q-18 -7 -24.5 -15t-6.5 -23v-206h323v232l-86 35l6 22h245l6 -22l-55 -23q-18 -7 -24.5 -15
t-6.5 -23z" />
    <glyph glyph-name="I" unicode="I" horiz-adv-x="325" 
d="M205 567v-510l86 -35l-6 -22h-245l-6 22l55 23q18 7 24.5 15t6.5 23v510l-86 35l6 22h245l6 -22l-55 -23q-18 -7 -24.5 -15t-6.5 -23z" />
    <glyph glyph-name="J" unicode="J" horiz-adv-x="308" 
d="M196 567v-575q0 -151 -142 -230l-18 23q41 48 58 94.5t17 120.5v593l-86 35l6 22h245l6 -22l-55 -23q-18 -7 -24.5 -15t-6.5 -23z" />
    <glyph glyph-name="K" unicode="K" horiz-adv-x="642" 
d="M492 0l-266 341l248 252l-86 35l6 22h228l6 -22l-55 -23q-8 -3 -11 -5t-6.5 -3t-7 -4.5t-5.5 -5t-8.5 -8.5t-11.5 -12l-203 -207l235 -303l86 -35l-6 -22h-143zM205 567v-510l86 -35l-6 -22h-245l-6 22l55 23q18 7 24.5 15t6.5 23v510l-86 35l6 22h245l6 -22l-55 -23
q-18 -7 -24.5 -15t-6.5 -23z" />
    <glyph glyph-name="L" unicode="L" horiz-adv-x="520" 
d="M205 567v-515l222 4l48 88l30 -7v-137h-465l-6 22l55 23q18 7 24.5 15t6.5 23v510l-86 35l6 22h245l6 -22l-55 -23q-18 -7 -24.5 -15t-6.5 -23z" />
    <glyph glyph-name="M" unicode="M" horiz-adv-x="877" 
d="M744 567l23 -510l86 -35l-6 -22h-237l-6 22l45 22q32 15 31 39l-22 490l-192 -553l-62 -20l-19 10l-187 562l-28 -515l76 -35l-6 -22h-210l-6 22l55 23q14 6 20.5 11.5t8 10.5t2.5 16l25 510l-86 35l6 22h202l13 -10l169 -522l177 532h208l6 -22l-55 -23q-32 -13 -31 -38
z" />
    <glyph glyph-name="N" unicode="N" horiz-adv-x="740" 
d="M628 567v-567l-72 -8l-370 526v-461l86 -35l-6 -22h-226l-6 22l55 23q18 7 24.5 15t6.5 23v510l-86 35l6 22h167l354 -504v-2l1 2v447l-86 35l6 22h226l6 -22l-55 -23q-18 -7 -24.5 -15t-6.5 -23z" />
    <glyph glyph-name="O" unicode="O" horiz-adv-x="705" 
d="M139 339q0 -135 56.5 -210t163.5 -75q89 0 145 37q62 76 62 216q0 137 -56.5 212t-162.5 75q-88 0 -146 -37q-62 -85 -62 -218zM46 320q0 84 26 150t70.5 106t100 61t118.5 21q132 0 215 -88t83 -242q0 -84 -26 -149.5t-70.5 -105.5t-100 -60.5t-118.5 -20.5
q-132 0 -215 87t-83 241z" />
    <glyph glyph-name="P" unicode="P" horiz-adv-x="544" 
d="M273 273q-22 0 -68 2v-214l96 -39l-6 -22h-255l-6 22l55 23q18 7 24.5 15t6.5 23v510l-86 35l6 22q159 8 222 8q131 0 194.5 -46.5t63.5 -143.5q0 -195 -247 -195zM279 603h-47q-27 0 -27 -25v-248q26 -4 60 -4q70 0 126 23q36 28 36 103q0 151 -148 151z" />
    <glyph glyph-name="Q" unicode="Q" horiz-adv-x="706" 
d="M46 320q0 84 26 150t70.5 106t100 61t118.5 21q133 0 215.5 -88.5t82.5 -249.5q0 -59 -13 -106.5t-30 -76t-47.5 -54t-49.5 -36.5t-53 -28l29 -10h-1q43 -12 93 -44t94 -59.5t78 -32.5q31 -4 77 17l14 -21l-100 -67q-47 3 -83 22.5t-102 69.5q-83 63 -119.5 76.5
t-111.5 15.5l-1 4q-1 3 -5 3h-10q-123 9 -197.5 95t-74.5 232zM139 339q0 -135 56.5 -210t163.5 -75q89 0 145 37q62 76 62 216q0 137 -56.5 212t-162.5 75q-88 0 -146 -37q-62 -85 -62 -218z" />
    <glyph glyph-name="R" unicode="R" horiz-adv-x="600" 
d="M263 282h-58v-225l83 -35l-6 -22h-242l-6 22l55 23q18 7 24.5 15t6.5 23v510l-86 35l6 22q165 8 226 8q259 0 259 -186q0 -147 -158 -182q11 -10 20 -29q68 -139 101 -180t102 -56l-7 -25l-112 -8q-54 44 -81.5 87t-90.5 176q-13 27 -36 27zM205 578v-245h65q74 0 116 17
q22 16 34 37.5t12 63.5q0 65 -34.5 108.5t-113.5 43.5h-52q-27 0 -27 -25z" />
    <glyph glyph-name="S" unicode="S" horiz-adv-x="517" 
d="M368 484l-5 94q-33 18 -93 18q-79 0 -123 -37q-12 -19 -12 -55q0 -77 82 -108l130 -50q128 -49 128 -177q0 -87 -61 -132t-158 -45q-134 0 -221 82l64 109l24 -7l15 -96q37 -26 114 -26q63 0 102.5 24t39.5 77q0 41 -26 67t-81 47l-115 44q-117 45 -117 162
q0 88 62 135.5t158 47.5q117 0 188 -82l-71 -99z" />
    <glyph glyph-name="T" unicode="T" horiz-adv-x="543" 
d="M524 650v-137l-24 -7l-50 93l-109 3q-13 1 -20 -7t-7 -19v-519l86 -35l-6 -22h-245l-6 22l55 23q18 7 24.5 15t6.5 23v520l-136 -4l-50 -93l-24 7v137h505z" />
    <glyph glyph-name="U" unicode="U" horiz-adv-x="699" 
d="M599 567v-312q0 -141 -58 -202t-181 -61q-261 0 -261 260v345l-76 31l6 22h235l1 -22l-50 -23q-18 -7 -24.5 -15t-6.5 -23v-310q0 -97 46.5 -150t133.5 -53q71 0 119 24q50 53 50 174v341l-86 35l6 22h216l6 -22l-45 -19q-31 -12 -31 -42z" />
    <glyph glyph-name="V" unicode="V" horiz-adv-x="638" 
d="M173 567l162 -459l168 485l-86 35l6 22h221l6 -22l-55 -23q-17 -7 -21.5 -13t-11.5 -25l-200 -557l-61 -18l-20 8l-215 596l-78 32l6 22h245l6 -22l-55 -23q-27 -11 -17 -38z" />
    <glyph glyph-name="W" unicode="W" horiz-adv-x="976" 
d="M176 567l133 -459l152 522l61 20l19 -10l157 -532l141 485l-86 35l6 22h222l6 -22l-55 -23q-17 -7 -22 -13.5t-11 -24.5l-169 -557l-74 -18l-20 8l-148 499l-141 -489l-77 -18l-20 8l-181 596l-78 32l6 22h245l6 -22l-55 -23q-26 -11 -17 -38z" />
    <glyph glyph-name="X" unicode="X" horiz-adv-x="646" 
d="M206 567l129 -180l145 206l-86 35l6 22h226l6 -22l-55 -23q-5 -2 -8.5 -3.5t-6.5 -4t-4.5 -3.5t-5 -5.5t-4.5 -5.5t-5 -7.5t-6 -8.5l-164 -233l202 -280l72 -32l-6 -22h-245l-6 22l55 23q25 11 5 38l-137 190l-157 -216l86 -35l-6 -22h-226l-6 22l55 23q10 4 17 9.5
t9.5 8.5t7.5 11t6 9l176 243l-194 270l-72 32l6 22h245l6 -22l-55 -23q-25 -11 -5 -38z" />
    <glyph glyph-name="Y" unicode="Y" horiz-adv-x="598" 
d="M179 567l136 -202l148 228l-86 35l6 22h224l6 -22l-55 -23q-12 -5 -19.5 -11t-12 -11t-11.5 -16l-172 -266v-244l86 -35l-6 -22h-245l-6 22l55 23q18 7 24.5 15t6.5 23v215l-198 298l-70 32l6 22h241l6 -22l-47 -23q-32 -15 -17 -38z" />
    <glyph glyph-name="Z" unicode="Z" horiz-adv-x="553" 
d="M508 650l6 -33l-369 -565l284 2l49 90l30 -7v-137h-477l-6 29l374 569l-264 -2l-49 -90l-30 7v137h452z" />
    <glyph glyph-name="bracketleft" unicode="[" horiz-adv-x="288" 
d="M91 758l179 -8v-36l-116 -9q-5 -410 0 -820l116 -9v-36l-179 -8l-12 11q7 452 0 904z" />
    <glyph glyph-name="backslash" unicode="\" horiz-adv-x="407" 
d="M73 709l16 -8q41 -99 98.5 -238.5t101.5 -245t96 -225.5l-50 -23l-16 8q-280 673 -296 709z" />
    <glyph glyph-name="bracketright" unicode="]" horiz-adv-x="288" 
d="M197 -168l-179 8v36l116 9q5 410 0 820l-116 9v36l179 8l12 -11q-7 -452 0 -904z" />
    <glyph glyph-name="asciicircum" unicode="^" horiz-adv-x="449" 
d="M40 413l163 245h42l165 -243l-34 -26l-151 172l-151 -173z" />
    <glyph glyph-name="underscore" unicode="_" horiz-adv-x="596" 
d="M57 12l12 39h456l11 -12l-11 -47q-356 8 -457 8z" />
    <glyph glyph-name="grave" unicode="`" horiz-adv-x="293" 
d="M240 552l-211 77l43 55l20 4l161 -116z" />
    <glyph glyph-name="a" unicode="a" horiz-adv-x="431" 
d="M192 57q30 0 81 17l2 116q-128 -7 -159 -44q-1 -5 -1 -13q0 -42 23 -59t54 -17zM353 54l69 -24l-6 -22l-85 -16l-20 8l-32 28l-5 2q-65 -38 -117 -38q-56 0 -87.5 34.5t-31.5 84.5q0 57 52.5 86t184.5 37l1 65q1 45 -21.5 72.5t-68.5 27.5q-32 0 -61 -9l-8 -76l-24 -7
l-55 78q22 25 66 49t105 24q149 0 149 -181z" />
    <glyph glyph-name="b" unicode="b" horiz-adv-x="502" 
d="M65 23v585l-70 11l-6 22l135 47l20 -8v-260q65 38 139 38q88 0 134.5 -67t46.5 -164q0 -114 -63.5 -174.5t-161.5 -60.5q-41 0 -95.5 9.5t-78.5 21.5zM146 376v-306q40 -14 99 -14q58 0 97 15q37 49 37 143q0 175 -132 175q-49 0 -101 -13z" />
    <glyph glyph-name="c" unicode="c" horiz-adv-x="434" 
d="M320 314l-8 76q-22 6 -59 6q-59 0 -93 -17q-38 -48 -38 -138q0 -88 42 -136.5t112 -48.5q62 0 119 26l14 -26q-12 -12 -29 -24.5t-54.5 -26t-78.5 -13.5q-93 0 -151 61.5t-58 168.5q0 113 63.5 174.5t154.5 61.5q45 0 80 -17t47 -30t19 -26l-58 -78z" />
    <glyph glyph-name="d" unicode="d" horiz-adv-x="522" 
d="M437 680v-626l69 -32l-6 -22l-95 -8l-14 6l-29 30l-4 2q-65 -38 -139 -38q-88 0 -134.5 67t-46.5 164q0 114 63.5 174.5t161.5 60.5q19 0 42 -2t37 -4l14 -3v159l-70 11l-6 22l137 47zM356 74v306q-40 14 -99 14q-58 0 -97 -15q-37 -49 -37 -143q0 -175 132 -175
q49 0 101 13z" />
    <glyph glyph-name="e" unicode="e" horiz-adv-x="455" 
d="M253 458q79 0 122 -49.5t43 -135.5v-33l-15 -15h-280q2 -77 43 -123t111 -46q59 0 118 26l14 -26q-12 -12 -29 -24.5t-54.5 -26t-78.5 -13.5q-93 0 -151 61.5t-58 168.5q0 113 63 174.5t152 61.5zM237 394q-47 0 -77 -15q-12 -15 -23.5 -48t-12.5 -63l214 6
q0 120 -101 120z" />
    <glyph glyph-name="f" unicode="f" horiz-adv-x="313" 
d="M180 404v-343l94 -39l-6 -22h-239l-6 22l45 19q18 7 24.5 15t6.5 23v324l-70 -1l-6 22l76 34q6 190 148 223q40 6 61.5 4.5t31.5 -5.5l7 -21l-14 -49q-33 6 -67 7q-46 1 -72 -12q-14 -30 -14 -125v-30h109l11 -12l-10 -38z" />
    <glyph glyph-name="g" unicode="g" horiz-adv-x="446" 
d="M381 506l43 -50l-6 -15q-57 -28 -70 -35q41 -44 41 -111q0 -74 -49.5 -119.5t-127.5 -45.5q-20 0 -38 3q-27 -25 -27 -52q0 -9 13 -11q15 -3 127 -13q63 -6 104.5 -38t41.5 -94q0 -74 -59.5 -118.5t-160.5 -44.5q-90 0 -142 35.5t-52 94.5q0 72 74 123q-16 18 -16 40
q0 21 14 47.5t36 45.5q-42 20 -65.5 58t-23.5 88q0 74 49 120t126 46q56 0 99 -26q41 51 69 72zM156 -13q-10 1 -23 5q-37 -34 -37 -81q0 -44 37.5 -68t94.5 -24q72 0 117 27q16 23 16 62q0 41 -25 54t-75 18q-47 5 -74.5 6t-30.5 1zM116 293q0 -49 26 -76.5t73 -27.5
q46 0 73 16q8 10 14.5 38t6.5 54q0 49 -26 76.5t-73 27.5q-46 0 -73 -16q-8 -10 -14.5 -38t-6.5 -54z" />
    <glyph glyph-name="h" unicode="h" horiz-adv-x="533" 
d="M370 293q0 51 -23.5 73.5t-76.5 22.5q-51 0 -103 -13v-322l79 -32l-6 -22h-224l-6 22l45 19q18 7 24.5 15t6.5 23v529l-70 11l-6 22l135 47l20 -8v-260q69 38 142 38q144 0 144 -153v-251l79 -32l-6 -22h-224l-6 22l45 19q18 7 24.5 15t6.5 23v214z" />
    <glyph glyph-name="i" unicode="i" horiz-adv-x="271" 
d="M181 450v-396l79 -32l-6 -22h-224l-6 22l45 19q18 7 24.5 15t6.5 23v299l-70 11l-6 22l137 47zM81 617q0 23 15.5 39t39.5 16q23 0 39 -16t16 -39q0 -24 -16 -39.5t-39 -15.5q-24 0 -39.5 15.5t-15.5 39.5z" />
    <glyph glyph-name="j" unicode="j" horiz-adv-x="239" 
d="M170 450v-450q0 -80 -38.5 -140.5t-104.5 -97.5l-14 18q76 89 76 212v386l-70 11l-6 22l137 47zM70 617q0 23 15.5 39t39.5 16q23 0 39 -16t16 -39q0 -24 -16 -39.5t-39 -15.5q-24 0 -39.5 15.5t-15.5 39.5z" />
    <glyph glyph-name="k" unicode="k" horiz-adv-x="513" 
d="M381 0l-203 242l157 154l-71 32l6 22h202l6 -22l-45 -19q-24 -10 -60 -46l-107 -104l172 -205l76 -32l-6 -22h-127zM167 680v-626l79 -32l-6 -22h-224l-6 22l45 19q18 7 24.5 15t6.5 23v529l-70 11l-6 22l137 47z" />
    <glyph glyph-name="l" unicode="l" horiz-adv-x="261" 
d="M171 680v-626l79 -32l-6 -22h-224l-6 22l45 19q18 7 24.5 15t6.5 23v529l-70 11l-6 22l137 47z" />
    <glyph glyph-name="m" unicode="m" horiz-adv-x="831" 
d="M668 293q0 51 -23.5 73.5t-76.5 22.5t-113 -16q10 -33 10 -68v-251l79 -32l-6 -22h-224l-6 22l45 19q18 7 24.5 15t6.5 23v214q0 51 -23.5 73.5t-76.5 22.5q-51 0 -103 -13v-322l79 -32l-6 -22h-224l-6 22l45 19q18 7 24.5 15t6.5 23v299l-70 11l-6 22l129 47l20 -8
l2 -28l4 -2q69 38 142 38q77 0 113 -45q88 45 167 45q148 0 148 -153v-251l79 -32l-6 -22h-224l-6 22l45 19q18 7 24.5 15t6.5 23v214z" />
    <glyph glyph-name="n" unicode="n" horiz-adv-x="547" 
d="M384 293q0 51 -23.5 73.5t-76.5 22.5q-51 0 -103 -13v-322l79 -32l-6 -22h-224l-6 22l45 19q18 7 24.5 15t6.5 23v299l-70 11l-6 22l129 47l20 -8l2 -28l4 -2q69 38 142 38q144 0 144 -153v-251l79 -32l-6 -22h-224l-6 22l45 19q18 7 24.5 15t6.5 23v214z" />
    <glyph glyph-name="o" unicode="o" 
d="M123 236q0 -180 137 -180q50 0 86 15q37 48 37 143q0 180 -137 180q-50 0 -86 -15q-37 -48 -37 -143zM38 222q0 115 64 175.5t157 60.5t151 -61t58 -169q0 -115 -64 -175.5t-157 -60.5t-151 61t-58 169z" />
    <glyph glyph-name="p" unicode="p" horiz-adv-x="526" 
d="M162 450l2 -28l4 -2q68 38 139 38q88 0 134.5 -67.5t46.5 -163.5q0 -114 -63.5 -174.5t-158.5 -60.5q-46 0 -96 9v-175l79 -32l-6 -22h-224l-6 22l45 19q18 7 24.5 15t6.5 23v527l-70 11l-6 22l129 47zM170 376v-306q40 -14 99 -14q58 0 97 15q37 49 37 143
q0 175 -132 175q-49 0 -101 -13z" />
    <glyph glyph-name="q" unicode="q" 
d="M437 450v-624l79 -32l-6 -22h-224l-6 22l45 19q18 7 24.5 15t6.5 23v178q-67 -37 -137 -37q-87 0 -134 67.5t-47 163.5q0 114 63.5 174.5t158.5 60.5q61 0 117 -13l41 13zM356 74v306q-40 14 -99 14q-58 0 -97 -15q-37 -49 -37 -143q0 -175 132 -175q49 0 101 13z" />
    <glyph glyph-name="r" unicode="r" horiz-adv-x="387" 
d="M173 450l4 -37l4 -2q4 3 22.5 12t48.5 20.5t51 14.5q21 -6 45 -25.5t33 -36.5l-65 -87l-24 7v76q-26 0 -61.5 -7.5t-49.5 -13.5v-317l89 -32l-6 -22h-234l-6 22l45 19q18 7 24.5 15t6.5 23v299l-70 11l-6 22l129 47z" />
    <glyph glyph-name="s" unicode="s" horiz-adv-x="401" 
d="M275 324l-8 70q-23 10 -60 10q-58 0 -82 -24q-9 -14 -9 -33q0 -42 51 -61l102 -36q43 -15 69 -48.5t26 -78.5q0 -63 -48 -97t-118 -34q-59 0 -102.5 21.5t-63.5 45.5l51 83l25 -7l4 -67q35 -20 89 -20q91 0 91 62q0 25 -16 40t-52 27l-92 30q-41 14 -63 46t-22 72
q0 63 50 98t116 35q40 0 75 -15.5t47.5 -27t18.5 -20.5l-55 -78z" />
    <glyph glyph-name="t" unicode="t" horiz-adv-x="305" 
d="M86 89v313h-70l-6 22l76 34l44 93l37 -7v-94h119l11 -12l-10 -38l-120 4v-292q0 -37 15 -54.5t53 -17.5h57l5 -28q-63 -20 -110 -20q-49 0 -75 27t-26 70z" />
    <glyph glyph-name="u" unicode="u" horiz-adv-x="534" 
d="M448 450v-396l69 -24l-6 -22l-85 -16l-20 8l-32 28l-5 2q-69 -38 -142 -38q-144 0 -144 153v233l-70 11l-6 22l137 47l20 -8v-293q0 -51 23.5 -73.5t76.5 -22.5q51 0 103 13v304l-70 11l-6 22l137 47z" />
    <glyph glyph-name="v" unicode="v" horiz-adv-x="512" 
d="M170 363l99 -267l112 300l-71 32l6 22h194l6 -22l-49 -21q-10 -4 -17.5 -12t-10 -13.5t-7.5 -18.5l-143 -363l-46 -8l-20 8l-155 396l-71 32l6 22h220l6 -22l-45 -19q-27 -11 -14 -46z" />
    <glyph glyph-name="w" unicode="w" horiz-adv-x="754" 
d="M387 454l19 -8q101 -304 120 -354l97 304l-71 32l6 22h188l6 -22l-49 -21q-10 -4 -17 -12t-9.5 -13.5t-6.5 -18.5l-115 -363l-60 -8l-20 8q-45 126 -91 251q-15 -49 -39 -111.5t-41 -101.5l-17 -38l-60 -8l-20 8l-141 396l-71 32l6 22h220l6 -22l-45 -19
q-16 -7 -18.5 -19.5t4.5 -26.5l90 -271q71 162 91 255l-37 96z" />
    <glyph glyph-name="x" unicode="x" horiz-adv-x="504" 
d="M394 373l-98 -135l128 -186l75 -30l-6 -22h-130l-126 181l-88 -127l76 -32l-6 -22h-205l-6 22l49 21q29 12 44 34l105 146l-118 173l-76 32l6 22h128l117 -171l84 117l-76 32l6 22h205l6 -22l-49 -21q-29 -12 -45 -34z" />
    <glyph glyph-name="y" unicode="y" horiz-adv-x="521" 
d="M167 363l109 -257l112 290l-71 32l6 22h194l6 -22l-49 -21q-10 -4 -17.5 -12t-10 -13.5t-7.5 -18.5l-142 -351q-69 -170 -122 -250l-75 24l-8 20q105 113 141 193l-168 397l-71 32l6 22h220l6 -22l-45 -19q-28 -12 -14 -46z" />
    <glyph glyph-name="z" unicode="z" horiz-adv-x="429" 
d="M383 450l6 -33l-256 -371l184 4l48 84l24 -7v-127h-355l-6 29l259 375l-167 -4l-48 -84l-24 7v117l10 10h325z" />
    <glyph glyph-name="braceleft" unicode="{" horiz-adv-x="305" 
d="M95 295q4 -2 10 -6.5t21 -16.5t26.5 -23.5t20 -26.5t7.5 -27q-4 -43 -13 -116.5t-11 -104.5q-3 -55 6 -72q18 -10 44 -11q32 -1 65 8l16 -45l-11 -19q-6 -3 -27.5 -3t-40.5 4q-49 11 -84 56t-31 121q1 16 9 77.5t11 114.5q1 13 -22 33.5t-46 34.5l-23 14v16
q10 6 25.5 15.5t41 31.5t24.5 35q-3 53 -11 114.5t-9 77.5q-4 75 31 120.5t84 56.5q18 4 40 4t28 -3l11 -19l-16 -45q-33 9 -65 8q-24 -1 -44 -11q-9 -17 -6 -72q2 -31 11 -104.5t13 -116.5q2 -19 -19.5 -44t-43.5 -41z" />
    <glyph glyph-name="bar" unicode="|" horiz-adv-x="227" 
d="M80 718l55 10l12 -11q-5 -384 0 -815l-55 -10l-12 11q5 377 0 815z" />
    <glyph glyph-name="braceright" unicode="}" horiz-adv-x="305" 
d="M210 295q-4 2 -10 6.5t-21 16.5t-26.5 23.5t-20 26.5t-7.5 27q4 43 13 116.5t11 104.5q3 55 -6 72q-20 10 -44 11q-32 1 -65 -8l-16 45l11 19q7 3 28.5 3t39.5 -4q49 -11 84 -56.5t31 -120.5q-1 -16 -9 -77.5t-11 -114.5q-1 -13 22 -33.5t46 -34.5l23 -14v-16
q-10 -6 -25.5 -15.5t-41 -31.5t-24.5 -35q3 -53 11 -114.5t9 -77.5q4 -76 -31 -121t-84 -56q-19 -4 -40.5 -4t-27.5 3l-11 19l16 45q33 -9 65 -8q26 1 44 11q9 17 6 72q-2 31 -11 104.5t-13 116.5q-2 19 19.5 44t43.5 41z" />
    <glyph glyph-name="asciitilde" unicode="~" horiz-adv-x="560" 
d="M262 303q-14 9 -30 20t-23.5 16.5t-15.5 10t-13 5.5q-18 -4 -37 -30q-15 -21 -26 -57l-48 14l-9 21q15 34 46.5 60.5t74.5 29.5q54 4 123 -41q10 -6 30.5 -20.5t33.5 -22.5t18 -9q18 4 37 30q15 21 26 57l48 -14l9 -21q-16 -35 -47.5 -60.5t-73.5 -29.5q-54 -4 -123 41z
" />
    <glyph glyph-name="uni00A0" unicode="&#xa0;" horiz-adv-x="220" 
 />
    <glyph glyph-name="exclamdown" unicode="&#xa1;" horiz-adv-x="227" 
d="M165 -228l-92 -10l-12 11l34 486l25 4l13 -2zM58 403q0 23 15.5 39t39.5 16q23 0 39 -16t16 -39q0 -24 -16 -39.5t-39 -15.5q-24 0 -39.5 15.5t-15.5 39.5z" />
    <glyph glyph-name="cent" unicode="&#xa2;" horiz-adv-x="420" 
d="M299 391l-9 81q-17 5 -53 5q-52 0 -84 -15q-35 -51 -35 -129q0 -80 38 -124t103 -44q53 0 108 23l14 -23q-49 -52 -136 -57l14 -133l-60 -10l-12 11l13 134q-73 10 -116 64t-43 143q0 92 45 146t116 66l-13 127l60 10l12 -11l-13 -123q39 -1 71.5 -15.5t46.5 -27
t19 -21.5l-65 -83z" />
    <glyph glyph-name="sterling" unicode="&#xa3;" horiz-adv-x="482" 
d="M39 323l12 36h54q-7 53 -7 83q0 104 62 160t168 56q62 0 82 -10l11 -19l-16 -54q-48 13 -124 13q-48 0 -80 -10q-33 -43 -33 -128q0 -27 6 -89l188 6l11 -12l-11 -49q-97 1 -183 3q7 -86 -2.5 -149.5t-51.5 -106.5q44 20 105.5 19.5t103 -6t90.5 12.5l14 -4l14 -57
q-41 -23 -86.5 -24.5t-85 9t-94.5 11.5t-114 -18l-22 40q38 30 55 77.5t14.5 95.5t-7.5 101q-31 1 -62 1z" />
    <glyph glyph-name="currency" unicode="&#xa4;" horiz-adv-x="658" 
d="M112 323q0 73 33 125l-97 120l26 30l129 -90q58 40 131 40q68 0 123 -38l127 88l26 -30l-96 -118q32 -53 32 -122q0 -72 -34 -127l98 -119l-26 -30l-130 89q-58 -39 -130 -39q-69 0 -123 37l-127 -87l-26 30l96 117q-32 53 -32 124zM197 340q0 -83 38 -128.5t104 -45.5
q45 0 83 20q39 49 39 124q0 83 -38 128.5t-104 45.5q-45 0 -83 -20q-39 -49 -39 -124z" />
    <glyph glyph-name="yen" unicode="&#xa5;" horiz-adv-x="673" 
d="M118 326l11 40h118l-152 230l-70 32l6 22h241l6 -22l-47 -23q-32 -15 -17 -38l136 -202l148 228l-86 35l6 22h224l6 -22l-55 -23q-12 -5 -19.5 -11t-12 -11t-11.5 -16l-130 -199l122 2l10 -12l-10 -43h-414zM118 216l12 39h411l11 -12l-11 -43q-74 1 -163 2v-145l86 -35
l-6 -22h-245l-6 22l55 23q18 7 24.5 15t6.5 23v120q-34 0 -90 0.5t-74 0.5zM351 357q1 0 3 2l-7 -1q1 -1 4 -1z" />
    <glyph glyph-name="brokenbar" unicode="&#xa6;" horiz-adv-x="224" 
d="M146 -97l-57 -10l-12 11q8 295 9 327l40 10l12 -11q2 -101 8 -327zM77 718l57 10l12 -11q-8 -295 -9 -327l-39 -10l-12 11q-1 63 -5 187t-4 140z" />
    <glyph glyph-name="section" unicode="&#xa7;" horiz-adv-x="420" 
d="M185 -35l-37 2l-10 6v13q0 95 -41 247t-41 212q0 105 65.5 159t177.5 54q59 0 79 -10l11 -19l-16 -58q-51 14 -125 14q-57 0 -89 -10q-33 -43 -33 -126q0 -64 32 -204t32 -215q0 -36 -5 -65zM235 495l37 -2l10 -6v-13q0 -95 41 -247t41 -212q0 -105 -65.5 -159
t-177.5 -54q-59 0 -79 10l-11 19l16 58q51 -14 125 -14q57 0 89 10q33 43 33 126q0 64 -32 204t-32 215q0 36 5 65z" />
    <glyph glyph-name="dieresis" unicode="&#xa8;" horiz-adv-x="376" 
d="M34 617q0 23 15.5 39t39.5 16q23 0 39 -16t16 -39q0 -24 -16 -39.5t-39 -15.5q-24 0 -39.5 15.5t-15.5 39.5zM232 617q0 23 15.5 39t39.5 16q23 0 39 -16t16 -39q0 -24 -16 -39.5t-39 -15.5q-24 0 -39.5 15.5t-15.5 39.5z" />
    <glyph glyph-name="copyright" unicode="&#xa9;" horiz-adv-x="810" 
d="M43 320q0 171 105 270t263 99q154 0 255 -96t101 -263q0 -170 -104.5 -269.5t-262.5 -99.5q-155 0 -256 96t-101 263zM121 328q0 -145 79 -228t209 -83q129 0 204.5 82t75.5 223q0 145 -78.5 228t-208.5 83q-129 0 -205 -82t-76 -223zM468 393l-9 67q-20 5 -47 5
q-50 0 -75 -14q-26 -37 -26 -110q0 -150 121 -150q48 0 99 18l11 -21q-13 -17 -49.5 -34.5t-83.5 -17.5q-75 0 -124.5 49.5t-49.5 142.5q0 98 53.5 145t125.5 47q37 0 68.5 -13t45.5 -25t18 -20l-59 -75z" />
    <glyph glyph-name="ordfeminine" unicode="&#xaa;" horiz-adv-x="343" 
d="M245 473l32 -11l-6 -24l-50 -7l-13 4l-14 14q-23 -19 -55 -19q-29 0 -46.5 18t-17.5 43q0 28 27 42.5t87 24.5v20q2 39 -36 39q-16 0 -24 -4l-2 -34l-20 -6l-34 48q37 37 92 37q81 0 81 -95zM157 474q20 0 32 6v45q-47 -5 -61 -15q-2 -36 29 -36zM56 327l12 39l211 4
l11 -12l-11 -46q-182 3 -212 3z" />
    <glyph glyph-name="guillemotleft" unicode="&#xab;" horiz-adv-x="536" 
d="M263 6l-239 202v34l239 202l31 -32l-169 -187l169 -187zM464 18l-203 193v28l203 193l34 -27l-142 -180l142 -180z" />
    <glyph glyph-name="logicalnot" unicode="&#xac;" horiz-adv-x="578" 
d="M61 319l12 45l425 2l11 -12l2 -186l-47 -11l-12 11q1 38 2 137q-200 2 -382 2z" />
    <glyph glyph-name="registered" unicode="&#xae;" horiz-adv-x="830" 
d="M43 320q0 170 109.5 269.5t267.5 99.5q156 0 261.5 -96.5t105.5 -262.5q0 -170 -109 -269.5t-268 -99.5q-156 0 -261.5 96.5t-105.5 262.5zM121 328q0 -144 83.5 -227.5t214.5 -83.5q130 0 210 82.5t80 223.5q0 143 -82.5 226.5t-214.5 83.5q-130 0 -210.5 -82
t-80.5 -223zM394 297h-32v-122q26 -11 48 -23l-3 -19h-158l-5 19l34 15q19 9 19 21v290l-53 22l5 19q109 6 149 6q157 0 157 -113q0 -42 -22.5 -69t-58.5 -36q2 -8 16 -35q39 -75 62 -96t45 -20l-4 -23l-86 -4q-32 18 -96 155q0 1 -1 3t-1.5 3.5t-2.5 3t-5 2.5t-7 1z
M362 471v-133h38q44 0 63 9v-1q17 15 17 53q0 85 -73 85h-31q-14 0 -14 -13z" />
    <glyph glyph-name="degree" unicode="&#xb0;" horiz-adv-x="336" 
d="M110 538q0 -81 63 -81q17 0 33 6q20 20 20 67q0 81 -63 81q-17 0 -33 -6q-20 -20 -20 -67zM43 535q0 58 35 90.5t91 32.5q59 0 91.5 -35.5t32.5 -89.5q0 -56 -35 -89.5t-92 -33.5q-59 0 -91 35t-32 90z" />
    <glyph glyph-name="plusminus" unicode="&#xb1;" horiz-adv-x="466" 
d="M59 401l12 45h134v139l45 12l12 -11v-140l134 2l11 -12l-11 -49q-63 0 -133 1l1 -138l-49 -11l-12 11q1 54 1 138q-63 1 -134 1zM64 98l12 45l315 2l11 -12l-11 -49q-285 2 -316 2z" />
    <glyph glyph-name="twosuperior" unicode="&#xb2;" horiz-adv-x="326" 
d="M61 333l-7 36q79 65 109 103.5t30 71.5q0 24 -11.5 38t-32.5 14q-13 0 -25 -5l-3 -39l-30 -7l-40 52q4 5 16.5 15t40 22.5t54.5 12.5q42 0 69.5 -26.5t27.5 -68.5q0 -45 -30.5 -83.5t-88.5 -85.5h79l26 42l28 -7l-5 -85h-207z" />
    <glyph glyph-name="threesuperior" unicode="&#xb3;" horiz-adv-x="301" 
d="M247 557q0 -43 -30 -71q35 -31 35 -68t-35.5 -63.5t-100.5 -26.5q-31 0 -55 6l-5 14l9 39q35 -10 66 -10q33 0 58 10q4 12 4 27q0 38 -34 49q-45 0 -54 3l-7 9l4 27q1 0 60 4q29 14 29 46q0 19 -14 33.5t-37 14.5q-14 0 -29 -5l-3 -40l-21 -5l-37 53q44 44 103 44
q44 0 69 -24t25 -66z" />
    <glyph glyph-name="acute" unicode="&#xb4;" horiz-adv-x="293" 
d="M40 572l172 123l41 -52l-4 -20l-196 -71z" />
    <glyph glyph-name="mu" unicode="&#xb5;" horiz-adv-x="566" 
d="M472 450v-396l69 -24l-6 -22l-85 -16l-20 8l-32 28l-5 2q-69 -38 -142 -38q-41 0 -73 14l6 -244h-76l-12 11q11 177 11 284v321l-70 11l-6 22l137 47l20 -8v-293q0 -51 23.5 -73.5t76.5 -22.5q51 0 103 13v304l-70 11l-6 22l137 47z" />
    <glyph glyph-name="mu" unicode="&#x3bc;" horiz-adv-x="566" 
d="M472 450v-396l69 -24l-6 -22l-85 -16l-20 8l-32 28l-5 2q-69 -38 -142 -38q-41 0 -73 14l6 -244h-76l-12 11q11 177 11 284v321l-70 11l-6 22l137 47l20 -8v-293q0 -51 23.5 -73.5t76.5 -22.5q51 0 103 13v304l-70 11l-6 22l137 47z" />
    <glyph glyph-name="paragraph" unicode="&#xb6;" horiz-adv-x="497" 
d="M306 105v161q-9 -1 -32 -1q-100 0 -168 51.5t-68 148.5t69 144.5t183 47.5q46 0 175 -7l6 -22l-55 -23q-22 -9 -31.5 -16.5t-9.5 -21.5v-443q0 -96 -47.5 -150.5t-137.5 -50.5q-32 1 -61.5 9.5t-37.5 14.5l-11 19l20 49q52 -26 103 -31q27 -3 54.5 1t33.5 8q15 27 15 112
z" />
    <glyph glyph-name="periodcentered" unicode="&#xb7;" horiz-adv-x="228" 
d="M59 220q0 23 15.5 39t39.5 16q23 0 39 -16t16 -39q0 -24 -16 -39.5t-39 -15.5q-24 0 -39.5 15.5t-15.5 39.5z" />
    <glyph glyph-name="cedilla" unicode="&#xb8;" horiz-adv-x="357" 
d="M149 -196q26 -1 50 7q9 14 9 35q0 60 -73 55l-11 13l30 104h31l-5 -86q37 -2 62 -23t25 -55q0 -39 -32.5 -65.5t-85.5 -26.5q-36 0 -52 8l-7 10l10 33q20 -8 49 -9z" />
    <glyph glyph-name="onesuperior" unicode="&#xb9;" horiz-adv-x="254" 
d="M51 592l93 54l24 -7v-266l44 -21l-6 -19h-146l-5 23l45 17q4 1 4 6v196l-48 -6z" />
    <glyph glyph-name="ordmasculine" unicode="&#xba;" horiz-adv-x="358" 
d="M64 327l12 39l207 4l11 -12l-11 -46q-178 3 -208 3zM131 547q0 -70 53 -70q14 0 27 5q16 16 16 59q0 70 -53 70q-14 0 -27 -5q-16 -16 -16 -59zM64 545q0 50 33.5 81.5t82.5 31.5q52 0 83 -34t31 -81q0 -49 -33.5 -81t-83.5 -32q-51 0 -82 33.5t-31 81.5z" />
    <glyph glyph-name="guillemotright" unicode="&#xbb;" horiz-adv-x="536" 
d="M512 208l-239 -202l-31 32l169 187l-169 187l31 32l239 -202v-34zM275 211l-203 -193l-34 27l142 180l-142 180l34 27l203 -193v-28z" />
    <glyph glyph-name="onequarter" unicode="&#xbc;" horiz-adv-x="638" 
d="M589 230q0 -43 -30 -71q35 -31 35 -68t-35.5 -63.5t-100.5 -26.5q-31 0 -55 6l-5 14l9 39q35 -10 66 -10q33 0 58 10q4 12 4 27q0 38 -34 49q-45 0 -54 3l-7 9l4 27q1 0 60 4q29 14 29 46q0 19 -14 33.5t-37 14.5q-14 0 -29 -5l-3 -40l-21 -5l-37 53q44 44 103 44
q44 0 69 -24t25 -66zM52 592l93 54l24 -7v-266l44 -21l-6 -19h-146l-5 23l45 17q4 1 4 6v196l-48 -6zM562 630l12 -11q-242 -307 -458 -600l-64 -15l-12 11q242 307 458 600z" />
    <glyph glyph-name="onehalf" unicode="&#xbd;" horiz-adv-x="639" 
d="M52 592l93 54l24 -7v-266l44 -21l-6 -19h-146l-5 23l45 17q4 1 4 6v196l-48 -6zM386 3l-7 36q79 65 109 103.5t30 71.5q0 24 -11.5 38t-32.5 14q-13 0 -25 -5l-3 -39l-30 -7l-40 52q4 5 16.5 15t40 22.5t54.5 12.5q42 0 69.5 -26.5t27.5 -68.5q0 -45 -30.5 -83.5
t-88.5 -85.5h79l26 42l28 -7l-5 -85h-207zM562 630l12 -11q-242 -307 -458 -600l-64 -15l-12 11q242 307 458 600z" />
    <glyph glyph-name="threequarters" unicode="&#xbe;" horiz-adv-x="605" 
d="M440 308l37 11l19 -6q0 -75 2 -185l39 1l7 -9l-3 -38h-43l1 -78l-52 -4l-9 8q1 30 1 74h-122l-5 30zM439 126l1 99l-63 -99h62zM54 592l93 54l24 -7v-266l44 -21l-6 -19h-146l-5 23l45 17q4 1 4 6v196l-48 -6zM564 630l12 -11q-242 -307 -458 -600l-64 -15l-12 11
q242 307 458 600z" />
    <glyph glyph-name="questiondown" unicode="&#xbf;" horiz-adv-x="386" 
d="M218 183l8 86l38 2l14 -138q-96 -41 -134 -73t-38 -89q0 -64 33 -93q32 -12 90 -12q66 0 119 17l11 -54l-11 -18q-36 -18 -97 -18q-96 0 -159.5 49t-63.5 134q0 72 48 119t142 88zM294 403q0 -24 -15.5 -39.5t-39.5 -15.5t-39.5 16t-15.5 39t16 39t40 16q23 0 38.5 -15.5
t15.5 -39.5z" />
    <glyph glyph-name="Agrave" unicode="&#xc0;" horiz-adv-x="636" 
d="M464 83l-45 127h-232l-53 -153l86 -35l-6 -22h-221l-6 22l55 23q17 7 21.5 13t11.5 25l200 557l61 18l20 -8l215 -596l78 -32l-6 -22h-245l-6 22l55 23q27 11 17 38zM302 542l-98 -281h197zM392 722l-211 77l43 55l20 4l161 -116z" />
    <glyph glyph-name="Aacute" unicode="&#xc1;" horiz-adv-x="636" 
d="M464 83l-45 127h-232l-53 -153l86 -35l-6 -22h-221l-6 22l55 23q17 7 21.5 13t11.5 25l200 557l61 18l20 -8l215 -596l78 -32l-6 -22h-245l-6 22l55 23q27 11 17 38zM302 542l-98 -281h197zM217 742l172 123l41 -52l-4 -20l-196 -71z" />
    <glyph glyph-name="Acircumflex" unicode="&#xc2;" horiz-adv-x="636" 
d="M464 83l-45 127h-232l-53 -153l86 -35l-6 -22h-221l-6 22l55 23q17 7 21.5 13t11.5 25l200 557l61 18l20 -8l215 -596l78 -32l-6 -22h-245l-6 22l55 23q27 11 17 38zM302 542l-98 -281h197zM178 747l120 111h40l120 -111l-19 -19l-121 59l-121 -59z" />
    <glyph glyph-name="Atilde" unicode="&#xc3;" horiz-adv-x="636" 
d="M464 83l-45 127h-232l-53 -153l86 -35l-6 -22h-221l-6 22l55 23q17 7 21.5 13t11.5 25l200 557l61 18l20 -8l215 -596l78 -32l-6 -22h-245l-6 22l55 23q27 11 17 38zM302 542l-98 -281h197zM158 749l52 99l20 5q26 0 93 -26.5t83 -25.5l55 47l17 -11l-52 -99l-20 -5
q-26 0 -93 26.5t-83 25.5l-55 -47z" />
    <glyph glyph-name="Adieresis" unicode="&#xc4;" horiz-adv-x="636" 
d="M464 83l-45 127h-232l-53 -153l86 -35l-6 -22h-221l-6 22l55 23q17 7 21.5 13t11.5 25l200 557l61 18l20 -8l215 -596l78 -32l-6 -22h-245l-6 22l55 23q27 11 17 38zM302 542l-98 -281h197zM164 787q0 23 15.5 39t39.5 16q23 0 39 -16t16 -39q0 -24 -16 -39.5t-39 -15.5
q-24 0 -39.5 15.5t-15.5 39.5zM362 787q0 23 15.5 39t39.5 16q23 0 39 -16t16 -39q0 -24 -16 -39.5t-39 -15.5q-24 0 -39.5 15.5t-15.5 39.5z" />
    <glyph glyph-name="Aring" unicode="&#xc5;" horiz-adv-x="636" 
d="M464 83l-45 127h-232l-53 -153l86 -35l-6 -22h-221l-6 22l55 23q17 7 21.5 13t11.5 25l200 557l61 18l20 -8l215 -596l78 -32l-6 -22h-245l-6 22l55 23q27 11 17 38zM302 542l-98 -281h197zM279 796q0 -53 43 -53q13 0 20 5q15 11 15 42q0 53 -43 53q-13 0 -20 -5
q-15 -11 -15 -42zM222 791q0 41 27.5 64.5t70.5 23.5q42 0 68 -23.5t26 -61.5q0 -40 -28 -63.5t-71 -23.5q-42 0 -67.5 23t-25.5 61z" />
    <glyph glyph-name="AE" unicode="&#xc6;" horiz-adv-x="860" 
d="M550 570v-218q36 0 85 2.5t79 5.5l31 2l11 -12l-11 -52q-114 5 -195 5v-253l187 4l48 88l30 -7v-135h-430l-6 22l55 23q18 7 24.5 15t6.5 23v120h-228l-86 -146l86 -35l-6 -22h-241l-6 22l55 23q36 15 50 38l306 510l-86 35l6 22h495v-135l-30 -7l-48 88l-155 4
q-27 0 -27 -30zM465 256v333l-197 -333h197z" />
    <glyph glyph-name="Ccedilla" unicode="&#xc7;" horiz-adv-x="591" 
d="M303 -196q26 -1 50 7q9 14 9 35q0 60 -73 55l-11 13l23 82q-114 16 -184.5 100.5t-70.5 223.5q0 162 93 250t223 88q46 0 84 -11.5t60.5 -29.5t32.5 -29t16 -21l-65 -90l-24 7l-5 94q-46 16 -110 16q-77 0 -126 -22q-90 -84 -90 -238q0 -135 70 -207.5t177 -72.5
q81 0 167 43l15 -29q-26 -26 -82.5 -51t-131.5 -25h-13l-3 -60q37 -2 62 -23t25 -55q0 -39 -32.5 -65.5t-85.5 -26.5q-36 0 -52 8l-7 10l10 33q20 -8 49 -9z" />
    <glyph glyph-name="Egrave" unicode="&#xc8;" horiz-adv-x="545" 
d="M205 568v-216q47 0 103.5 3t89.5 6l32 3l11 -12l-11 -56q-119 7 -225 7v-251l217 4l48 88l30 -7v-137h-460l-6 22l55 23q18 7 24.5 15t6.5 23v510l-86 35l6 22h455v-137l-30 -7l-48 88l-185 4q-27 0 -27 -30zM366 722l-211 77l43 55l20 4l161 -116z" />
    <glyph glyph-name="Eacute" unicode="&#xc9;" horiz-adv-x="545" 
d="M205 568v-216q47 0 103.5 3t89.5 6l32 3l11 -12l-11 -56q-119 7 -225 7v-251l217 4l48 88l30 -7v-137h-460l-6 22l55 23q18 7 24.5 15t6.5 23v510l-86 35l6 22h455v-137l-30 -7l-48 88l-185 4q-27 0 -27 -30zM181 742l172 123l41 -52l-4 -20l-196 -71z" />
    <glyph glyph-name="Ecircumflex" unicode="&#xca;" horiz-adv-x="545" 
d="M205 568v-216q47 0 103.5 3t89.5 6l32 3l11 -12l-11 -56q-119 7 -225 7v-251l217 4l48 88l30 -7v-137h-460l-6 22l55 23q18 7 24.5 15t6.5 23v510l-86 35l6 22h455v-137l-30 -7l-48 88l-185 4q-27 0 -27 -30zM147 747l120 111h40l120 -111l-19 -19l-121 59l-121 -59z" />
    <glyph glyph-name="Edieresis" unicode="&#xcb;" horiz-adv-x="545" 
d="M205 568v-216q47 0 103.5 3t89.5 6l32 3l11 -12l-11 -56q-119 7 -225 7v-251l217 4l48 88l30 -7v-137h-460l-6 22l55 23q18 7 24.5 15t6.5 23v510l-86 35l6 22h455v-137l-30 -7l-48 88l-185 4q-27 0 -27 -30zM133 787q0 23 15.5 39t39.5 16q23 0 39 -16t16 -39
q0 -24 -16 -39.5t-39 -15.5q-24 0 -39.5 15.5t-15.5 39.5zM331 787q0 23 15.5 39t39.5 16q23 0 39 -16t16 -39q0 -24 -16 -39.5t-39 -15.5q-24 0 -39.5 15.5t-15.5 39.5z" />
    <glyph glyph-name="Igrave" unicode="&#xcc;" horiz-adv-x="325" 
d="M205 567v-510l86 -35l-6 -22h-245l-6 22l55 23q18 7 24.5 15t6.5 23v510l-86 35l6 22h245l6 -22l-55 -23q-18 -7 -24.5 -15t-6.5 -23zM251 722l-211 77l43 55l20 4l161 -116z" />
    <glyph glyph-name="Iacute" unicode="&#xcd;" horiz-adv-x="325" 
d="M205 567v-510l86 -35l-6 -22h-245l-6 22l55 23q18 7 24.5 15t6.5 23v510l-86 35l6 22h245l6 -22l-55 -23q-18 -7 -24.5 -15t-6.5 -23zM56 742l172 123l41 -52l-4 -20l-196 -71z" />
    <glyph glyph-name="Icircumflex" unicode="&#xce;" horiz-adv-x="325" 
d="M205 567v-510l86 -35l-6 -22h-245l-6 22l55 23q18 7 24.5 15t6.5 23v510l-86 35l6 22h245l6 -22l-55 -23q-18 -7 -24.5 -15t-6.5 -23zM22 747l120 111h40l120 -111l-19 -19l-121 59l-121 -59z" />
    <glyph glyph-name="Idieresis" unicode="&#xcf;" horiz-adv-x="325" 
d="M205 567v-510l86 -35l-6 -22h-245l-6 22l55 23q18 7 24.5 15t6.5 23v510l-86 35l6 22h245l6 -22l-55 -23q-18 -7 -24.5 -15t-6.5 -23zM8 787q0 23 15.5 39t39.5 16q23 0 39 -16t16 -39q0 -24 -16 -39.5t-39 -15.5q-24 0 -39.5 15.5t-15.5 39.5zM206 787q0 23 15.5 39
t39.5 16q23 0 39 -16t16 -39q0 -24 -16 -39.5t-39 -15.5q-24 0 -39.5 15.5t-15.5 39.5z" />
    <glyph glyph-name="Eth" unicode="&#xd0;" horiz-adv-x="707" 
d="M35 311l12 39h74v243l-86 35l6 22q226 8 284 8q334 0 334 -342q0 -178 -95 -250.5t-301 -72.5q-47 0 -222 7l-6 22l55 23q18 7 24.5 15t6.5 23v215q-28 1 -75 1zM340 603h-107q-27 0 -27 -25v-227l167 7l11 -12l-11 -52q-81 2 -167 3v-244q39 -4 100 -4q132 0 198 43
q62 76 62 216q0 137 -58 216t-168 79z" />
    <glyph glyph-name="Ntilde" unicode="&#xd1;" horiz-adv-x="740" 
d="M628 567v-567l-72 -8l-370 526v-461l86 -35l-6 -22h-226l-6 22l55 23q18 7 24.5 15t6.5 23v510l-86 35l6 22h167l354 -504v-2l1 2v447l-86 35l6 22h226l6 -22l-55 -23q-18 -7 -24.5 -15t-6.5 -23zM214 749l52 99l20 5q26 0 93 -26.5t83 -25.5l55 47l17 -11l-52 -99
l-20 -5q-26 0 -93 26.5t-83 25.5l-55 -47z" />
    <glyph glyph-name="Ograve" unicode="&#xd2;" horiz-adv-x="705" 
d="M139 339q0 -135 56.5 -210t163.5 -75q89 0 145 37q62 76 62 216q0 137 -56.5 212t-162.5 75q-88 0 -146 -37q-62 -85 -62 -218zM46 320q0 84 26 150t70.5 106t100 61t118.5 21q132 0 215 -88t83 -242q0 -84 -26 -149.5t-70.5 -105.5t-100 -60.5t-118.5 -20.5
q-132 0 -215 87t-83 241zM436 722l-211 77l43 55l20 4l161 -116z" />
    <glyph glyph-name="Oacute" unicode="&#xd3;" horiz-adv-x="705" 
d="M139 339q0 -135 56.5 -210t163.5 -75q89 0 145 37q62 76 62 216q0 137 -56.5 212t-162.5 75q-88 0 -146 -37q-62 -85 -62 -218zM46 320q0 84 26 150t70.5 106t100 61t118.5 21q132 0 215 -88t83 -242q0 -84 -26 -149.5t-70.5 -105.5t-100 -60.5t-118.5 -20.5
q-132 0 -215 87t-83 241zM246 742l172 123l41 -52l-4 -20l-196 -71z" />
    <glyph glyph-name="Ocircumflex" unicode="&#xd4;" horiz-adv-x="705" 
d="M139 339q0 -135 56.5 -210t163.5 -75q89 0 145 37q62 76 62 216q0 137 -56.5 212t-162.5 75q-88 0 -146 -37q-62 -85 -62 -218zM46 320q0 84 26 150t70.5 106t100 61t118.5 21q132 0 215 -88t83 -242q0 -84 -26 -149.5t-70.5 -105.5t-100 -60.5t-118.5 -20.5
q-132 0 -215 87t-83 241zM212 747l120 111h40l120 -111l-19 -19l-121 59l-121 -59z" />
    <glyph glyph-name="Otilde" unicode="&#xd5;" horiz-adv-x="705" 
d="M139 339q0 -135 56.5 -210t163.5 -75q89 0 145 37q62 76 62 216q0 137 -56.5 212t-162.5 75q-88 0 -146 -37q-62 -85 -62 -218zM46 320q0 84 26 150t70.5 106t100 61t118.5 21q132 0 215 -88t83 -242q0 -84 -26 -149.5t-70.5 -105.5t-100 -60.5t-118.5 -20.5
q-132 0 -215 87t-83 241zM192 749l52 99l20 5q26 0 93 -26.5t83 -25.5l55 47l17 -11l-52 -99l-20 -5q-26 0 -93 26.5t-83 25.5l-55 -47z" />
    <glyph glyph-name="Odieresis" unicode="&#xd6;" horiz-adv-x="705" 
d="M139 339q0 -135 56.5 -210t163.5 -75q89 0 145 37q62 76 62 216q0 137 -56.5 212t-162.5 75q-88 0 -146 -37q-62 -85 -62 -218zM46 320q0 84 26 150t70.5 106t100 61t118.5 21q132 0 215 -88t83 -242q0 -84 -26 -149.5t-70.5 -105.5t-100 -60.5t-118.5 -20.5
q-132 0 -215 87t-83 241zM198 787q0 23 15.5 39t39.5 16q23 0 39 -16t16 -39q0 -24 -16 -39.5t-39 -15.5q-24 0 -39.5 15.5t-15.5 39.5zM396 787q0 23 15.5 39t39.5 16q23 0 39 -16t16 -39q0 -24 -16 -39.5t-39 -15.5q-24 0 -39.5 15.5t-15.5 39.5z" />
    <glyph glyph-name="multiply" unicode="&#xd7;" horiz-adv-x="492" 
d="M62 487l36 30l148 -149l146 150l37 -30l1 -16l-142 -147l143 -144l-1 -16l-38 -32l-146 149l-145 -149l-38 31l-1 16l142 145l-143 146z" />
    <glyph glyph-name="Oslash" unicode="&#xd8;" horiz-adv-x="704" 
d="M46 320q0 84 26 150t70.5 106t100 61t117.5 21q69 0 131 -27l52 92l59 10l11 -12q-7 -12 -71 -120q117 -89 117 -273q0 -84 -26 -149.5t-70.5 -105.5t-100.5 -60.5t-119 -20.5q-76 0 -135 28l-45 -81l-59 -10l-11 12l65 111q-112 89 -112 268zM500 530
q-152 -260 -256 -446q46 -30 115 -30q89 0 145 37q62 76 62 216q0 149 -66 223zM139 338q0 -143 61 -216q119 202 255 445q-48 27 -109 27q-87 0 -145 -37q-62 -85 -62 -219z" />
    <glyph glyph-name="Ugrave" unicode="&#xd9;" horiz-adv-x="699" 
d="M599 567v-312q0 -141 -58 -202t-181 -61q-261 0 -261 260v345l-76 31l6 22h235l1 -22l-50 -23q-18 -7 -24.5 -15t-6.5 -23v-310q0 -97 46.5 -150t133.5 -53q71 0 119 24q50 53 50 174v341l-86 35l6 22h216l6 -22l-45 -19q-31 -12 -31 -42zM408 722l-211 77l43 55l20 4
l161 -116z" />
    <glyph glyph-name="Uacute" unicode="&#xda;" horiz-adv-x="699" 
d="M599 567v-312q0 -141 -58 -202t-181 -61q-261 0 -261 260v345l-76 31l6 22h235l1 -22l-50 -23q-18 -7 -24.5 -15t-6.5 -23v-310q0 -97 46.5 -150t133.5 -53q71 0 119 24q50 53 50 174v341l-86 35l6 22h216l6 -22l-45 -19q-31 -12 -31 -42zM273 742l172 123l41 -52l-4 -20
l-196 -71z" />
    <glyph glyph-name="Ucircumflex" unicode="&#xdb;" horiz-adv-x="699" 
d="M599 567v-312q0 -141 -58 -202t-181 -61q-261 0 -261 260v345l-76 31l6 22h235l1 -22l-50 -23q-18 -7 -24.5 -15t-6.5 -23v-310q0 -97 46.5 -150t133.5 -53q71 0 119 24q50 53 50 174v341l-86 35l6 22h216l6 -22l-45 -19q-31 -12 -31 -42zM209 747l120 111h40l120 -111
l-19 -19l-121 59l-121 -59z" />
    <glyph glyph-name="Udieresis" unicode="&#xdc;" horiz-adv-x="699" 
d="M599 567v-312q0 -141 -58 -202t-181 -61q-261 0 -261 260v345l-76 31l6 22h235l1 -22l-50 -23q-18 -7 -24.5 -15t-6.5 -23v-310q0 -97 46.5 -150t133.5 -53q71 0 119 24q50 53 50 174v341l-86 35l6 22h216l6 -22l-45 -19q-31 -12 -31 -42zM185 787q0 23 15.5 39t39.5 16
q23 0 39 -16t16 -39q0 -24 -16 -39.5t-39 -15.5q-24 0 -39.5 15.5t-15.5 39.5zM403 787q0 23 15.5 39t39.5 16q23 0 39 -16t16 -39q0 -24 -16 -39.5t-39 -15.5q-24 0 -39.5 15.5t-15.5 39.5z" />
    <glyph glyph-name="Yacute" unicode="&#xdd;" horiz-adv-x="598" 
d="M179 567l136 -202l148 228l-86 35l6 22h224l6 -22l-55 -23q-12 -5 -19.5 -11t-12 -11t-11.5 -16l-172 -266v-244l86 -35l-6 -22h-245l-6 22l55 23q18 7 24.5 15t6.5 23v215l-198 298l-70 32l6 22h241l6 -22l-47 -23q-32 -15 -17 -38zM215 742l172 123l41 -52l-4 -20
l-196 -71z" />
    <glyph glyph-name="Thorn" unicode="&#xde;" horiz-adv-x="529" 
d="M205 567v-71q17 1 46 1q129 0 189 -43t60 -129q0 -170 -229 -170q-35 0 -66 3v-101l86 -35l-6 -22h-245l-6 22l55 23q18 7 24.5 15t6.5 23v510l-86 35l6 22h245l6 -22l-55 -23q-18 -7 -24.5 -15t-6.5 -23zM279 446h-47q-27 0 -27 -25v-212q26 -4 63 -4q73 0 113 20
q26 30 26 91q0 130 -128 130z" />
    <glyph glyph-name="germandbls" unicode="&#xdf;" horiz-adv-x="543" 
d="M389 502q4 61 -26 93.5t-85 32.5t-84 -26q-19 -30 -19 -152v-371q0 -19 2.5 -36.5t4.5 -25.5l3 -8l-8 -9h-148l-6 22l45 19q18 7 24.5 15t6.5 23v323h-70l-6 22l76 34q1 96 57 163t149 67q73 0 112.5 -41.5t39.5 -98.5q0 -38 -19.5 -66t-43 -42t-43 -35t-19.5 -46
q0 -33 29 -54l66 -48q53 -39 74 -67.5t21 -69.5q0 -59 -38 -93.5t-102 -34.5q-52 0 -91 20t-51 37l41 87l20 -5l4 -71q29 -16 70 -16q73 0 73 57q0 27 -15.5 47.5t-50.5 46.5l-56 40q-62 44 -62 110q0 31 15 57.5t32.5 40.5t43 32t34.5 27z" />
    <glyph glyph-name="agrave" unicode="&#xe0;" horiz-adv-x="431" 
d="M192 57q30 0 81 17l2 116q-128 -7 -159 -44q-1 -5 -1 -13q0 -42 23 -59t54 -17zM353 54l69 -24l-6 -22l-85 -16l-20 8l-32 28l-5 2q-65 -38 -117 -38q-56 0 -87.5 34.5t-31.5 84.5q0 57 52.5 86t184.5 37l1 65q1 45 -21.5 72.5t-68.5 27.5q-32 0 -61 -9l-8 -76l-24 -7
l-55 78q22 25 66 49t105 24q149 0 149 -181zM297 552l-211 77l43 55l20 4l161 -116z" />
    <glyph glyph-name="aacute" unicode="&#xe1;" horiz-adv-x="431" 
d="M192 57q30 0 81 17l2 116q-128 -7 -159 -44q-1 -5 -1 -13q0 -42 23 -59t54 -17zM353 54l69 -24l-6 -22l-85 -16l-20 8l-32 28l-5 2q-65 -38 -117 -38q-56 0 -87.5 34.5t-31.5 84.5q0 57 52.5 86t184.5 37l1 65q1 45 -21.5 72.5t-68.5 27.5q-32 0 -61 -9l-8 -76l-24 -7
l-55 78q22 25 66 49t105 24q149 0 149 -181zM97 572l172 123l41 -52l-4 -20l-196 -71z" />
    <glyph glyph-name="acircumflex" unicode="&#xe2;" horiz-adv-x="431" 
d="M192 57q30 0 81 17l2 116q-128 -7 -159 -44q-1 -5 -1 -13q0 -42 23 -59t54 -17zM353 54l69 -24l-6 -22l-85 -16l-20 8l-32 28l-5 2q-65 -38 -117 -38q-56 0 -87.5 34.5t-31.5 84.5q0 57 52.5 86t184.5 37l1 65q1 45 -21.5 72.5t-68.5 27.5q-32 0 -61 -9l-8 -76l-24 -7
l-55 78q22 25 66 49t105 24q149 0 149 -181zM63 577l120 111h40l120 -111l-19 -19l-121 59l-121 -59z" />
    <glyph glyph-name="atilde" unicode="&#xe3;" horiz-adv-x="431" 
d="M192 57q30 0 81 17l2 116q-128 -7 -159 -44q-1 -5 -1 -13q0 -42 23 -59t54 -17zM353 54l69 -24l-6 -22l-85 -16l-20 8l-32 28l-5 2q-65 -38 -117 -38q-56 0 -87.5 34.5t-31.5 84.5q0 57 52.5 86t184.5 37l1 65q1 45 -21.5 72.5t-68.5 27.5q-32 0 -61 -9l-8 -76l-24 -7
l-55 78q22 25 66 49t105 24q149 0 149 -181zM43 579l52 99l20 5q26 0 93 -26.5t83 -25.5l55 47l17 -11l-52 -99l-20 -5q-26 0 -93 26.5t-83 25.5l-55 -47z" />
    <glyph glyph-name="adieresis" unicode="&#xe4;" horiz-adv-x="431" 
d="M192 57q30 0 81 17l2 116q-128 -7 -159 -44q-1 -5 -1 -13q0 -42 23 -59t54 -17zM353 54l69 -24l-6 -22l-85 -16l-20 8l-32 28l-5 2q-65 -38 -117 -38q-56 0 -87.5 34.5t-31.5 84.5q0 57 52.5 86t184.5 37l1 65q1 45 -21.5 72.5t-68.5 27.5q-32 0 -61 -9l-8 -76l-24 -7
l-55 78q22 25 66 49t105 24q149 0 149 -181zM49 617q0 23 15.5 39t39.5 16q23 0 39 -16t16 -39q0 -24 -16 -39.5t-39 -15.5q-24 0 -39.5 15.5t-15.5 39.5zM247 617q0 23 15.5 39t39.5 16q23 0 39 -16t16 -39q0 -24 -16 -39.5t-39 -15.5q-24 0 -39.5 15.5t-15.5 39.5z" />
    <glyph glyph-name="aring" unicode="&#xe5;" horiz-adv-x="431" 
d="M192 57q30 0 81 17l2 116q-128 -7 -159 -44q-1 -5 -1 -13q0 -42 23 -59t54 -17zM353 54l69 -24l-6 -22l-85 -16l-20 8l-32 28l-5 2q-65 -38 -117 -38q-56 0 -87.5 34.5t-31.5 84.5q0 57 52.5 86t184.5 37l1 65q1 45 -21.5 72.5t-68.5 27.5q-32 0 -61 -9l-8 -76l-24 -7
l-55 78q22 25 66 49t105 24q149 0 149 -181zM159 626q0 -53 43 -53q13 0 20 5q15 11 15 42q0 53 -43 53q-13 0 -20 -5q-15 -11 -15 -42zM102 621q0 41 27.5 64.5t70.5 23.5q42 0 68 -23.5t26 -61.5q0 -40 -28 -63.5t-71 -23.5q-42 0 -67.5 23t-25.5 61z" />
    <glyph glyph-name="ae" unicode="&#xe6;" horiz-adv-x="678" 
d="M484 458q73 0 114.5 -51t41.5 -137v-37l-15 -15l-260 -16q2 -74 39.5 -110.5t101.5 -36.5q50 0 111 27l14 -26q-20 -22 -60 -43t-89 -21q-84 0 -139 60q-87 -60 -175 -60q-64 0 -97 34.5t-33 85.5q0 57 54 87t191 42l1 58q1 44 -22 72t-74 28q-34 0 -63 -9l-8 -76l-24 -7
l-55 78q22 25 67.5 49t107.5 24q93 0 129 -65q55 65 142 65zM466 396q-32 0 -60 -14q-11 -13 -17 -22t-14 -39t-9 -73l194 16q0 63 -24 97.5t-70 34.5zM198 50q48 0 83 22l2 123q-134 -10 -166 -48q-1 -5 -1 -13q0 -43 23.5 -63.5t58.5 -20.5z" />
    <glyph glyph-name="ccedilla" unicode="&#xe7;" horiz-adv-x="434" 
d="M212 -196q26 -1 50 7q9 14 9 35q0 60 -73 55l-11 13l23 81q-78 11 -125 71t-47 156q0 113 63.5 174.5t154.5 61.5q45 0 80 -17t47 -30t19 -26l-58 -78l-24 7l-8 76q-22 6 -59 6q-59 0 -93 -17q-38 -48 -38 -138q0 -88 42 -136.5t112 -48.5q62 0 119 26l14 -26
q-12 -12 -29 -24.5t-54.5 -26t-78.5 -13.5h-1l-3 -60q37 -2 62 -23t25 -55q0 -39 -32.5 -65.5t-85.5 -26.5q-36 0 -52 8l-7 10l10 33q20 -8 49 -9z" />
    <glyph glyph-name="egrave" unicode="&#xe8;" horiz-adv-x="455" 
d="M253 458q79 0 122 -49.5t43 -135.5v-33l-15 -15h-280q2 -77 43 -123t111 -46q59 0 118 26l14 -26q-12 -12 -29 -24.5t-54.5 -26t-78.5 -13.5q-93 0 -151 61.5t-58 168.5q0 113 63 174.5t152 61.5zM237 394q-47 0 -77 -15q-12 -15 -23.5 -48t-12.5 -63l214 6
q0 120 -101 120zM337 552l-211 77l43 55l20 4l161 -116z" />
    <glyph glyph-name="eacute" unicode="&#xe9;" horiz-adv-x="455" 
d="M253 458q79 0 122 -49.5t43 -135.5v-33l-15 -15h-280q2 -77 43 -123t111 -46q59 0 118 26l14 -26q-12 -12 -29 -24.5t-54.5 -26t-78.5 -13.5q-93 0 -151 61.5t-58 168.5q0 113 63 174.5t152 61.5zM237 394q-47 0 -77 -15q-12 -15 -23.5 -48t-12.5 -63l214 6
q0 120 -101 120zM132 572l172 123l41 -52l-4 -20l-196 -71z" />
    <glyph glyph-name="ecircumflex" unicode="&#xea;" horiz-adv-x="455" 
d="M253 458q79 0 122 -49.5t43 -135.5v-33l-15 -15h-280q2 -77 43 -123t111 -46q59 0 118 26l14 -26q-12 -12 -29 -24.5t-54.5 -26t-78.5 -13.5q-93 0 -151 61.5t-58 168.5q0 113 63 174.5t152 61.5zM237 394q-47 0 -77 -15q-12 -15 -23.5 -48t-12.5 -63l214 6
q0 120 -101 120zM98 577l120 111h40l120 -111l-19 -19l-121 59l-121 -59z" />
    <glyph glyph-name="edieresis" unicode="&#xeb;" horiz-adv-x="455" 
d="M253 458q79 0 122 -49.5t43 -135.5v-33l-15 -15h-280q2 -77 43 -123t111 -46q59 0 118 26l14 -26q-12 -12 -29 -24.5t-54.5 -26t-78.5 -13.5q-93 0 -151 61.5t-58 168.5q0 113 63 174.5t152 61.5zM237 394q-47 0 -77 -15q-12 -15 -23.5 -48t-12.5 -63l214 6
q0 120 -101 120zM84 617q0 23 15.5 39t39.5 16q23 0 39 -16t16 -39q0 -24 -16 -39.5t-39 -15.5q-24 0 -39.5 15.5t-15.5 39.5zM282 617q0 23 15.5 39t39.5 16q23 0 39 -16t16 -39q0 -24 -16 -39.5t-39 -15.5q-24 0 -39.5 15.5t-15.5 39.5z" />
    <glyph glyph-name="igrave" unicode="&#xec;" horiz-adv-x="271" 
d="M181 450v-396l79 -32l-6 -22h-224l-6 22l45 19q18 7 24.5 15t6.5 23v299l-70 11l-6 22l137 47zM201 552l-211 77l43 55l20 4l161 -116z" />
    <glyph glyph-name="iacute" unicode="&#xed;" horiz-adv-x="271" 
d="M181 450v-396l79 -32l-6 -22h-224l-6 22l45 19q18 7 24.5 15t6.5 23v299l-70 11l-6 22l137 47zM16 572l172 123l41 -52l-4 -20l-196 -71z" />
    <glyph glyph-name="icircumflex" unicode="&#xee;" horiz-adv-x="271" 
d="M181 450v-396l79 -32l-6 -22h-224l-6 22l45 19q18 7 24.5 15t6.5 23v299l-70 11l-6 22l137 47zM7 577l120 111h40l120 -111l-19 -19l-121 59l-121 -59z" />
    <glyph glyph-name="idieresis" unicode="&#xef;" horiz-adv-x="271" 
d="M181 450v-396l79 -32l-6 -22h-224l-6 22l45 19q18 7 24.5 15t6.5 23v299l-70 11l-6 22l137 47zM-12 617q0 23 15.5 39t39.5 16q23 0 39 -16t16 -39q0 -24 -16 -39.5t-39 -15.5q-24 0 -39.5 15.5t-15.5 39.5zM176 617q0 23 15.5 39t39.5 16q23 0 39 -16t16 -39
q0 -24 -16 -39.5t-39 -15.5q-24 0 -39.5 15.5t-15.5 39.5z" />
    <glyph glyph-name="eth" unicode="&#xf0;" horiz-adv-x="516" 
d="M192 516l-31 30l43 62q-15 11 -42 28.5t-29 18.5l18 33q45 -17 83 -37l39 53l17 2l38 -34q-20 -25 -42 -53q83 -54 136 -153t46 -228q-7 -122 -65 -184t-153 -62q-99 0 -155.5 63.5t-56.5 168.5q0 116 65.5 175t152.5 59q54 0 97 -27q-33 82 -103 142q-7 -10 -17 -22.5
t-16 -20.5l-9 -12zM383 224q4 74 -9 134q-56 38 -128 38q-51 0 -86 -24q-37 -52 -37 -138q0 -79 33.5 -128.5t96.5 -49.5q48 0 84 15q41 52 46 153z" />
    <glyph glyph-name="ntilde" unicode="&#xf1;" horiz-adv-x="547" 
d="M384 293q0 51 -23.5 73.5t-76.5 22.5q-51 0 -103 -13v-322l79 -32l-6 -22h-224l-6 22l45 19q18 7 24.5 15t6.5 23v299l-70 11l-6 22l129 47l20 -8l2 -28l4 -2q69 38 142 38q144 0 144 -153v-251l79 -32l-6 -22h-224l-6 22l45 19q18 7 24.5 15t6.5 23v214zM116 579l52 99
l20 5q26 0 93 -26.5t83 -25.5l55 47l17 -11l-52 -99l-20 -5q-26 0 -93 26.5t-83 25.5l-55 -47z" />
    <glyph glyph-name="ograve" unicode="&#xf2;" 
d="M123 236q0 -180 137 -180q50 0 86 15q37 48 37 143q0 180 -137 180q-50 0 -86 -15q-37 -48 -37 -143zM38 222q0 115 64 175.5t157 60.5t151 -61t58 -169q0 -115 -64 -175.5t-157 -60.5t-151 61t-58 169zM342 552l-211 77l43 55l20 4l161 -116z" />
    <glyph glyph-name="oacute" unicode="&#xf3;" 
d="M123 236q0 -180 137 -180q50 0 86 15q37 48 37 143q0 180 -137 180q-50 0 -86 -15q-37 -48 -37 -143zM38 222q0 115 64 175.5t157 60.5t151 -61t58 -169q0 -115 -64 -175.5t-157 -60.5t-151 61t-58 169zM147 572l172 123l41 -52l-4 -20l-196 -71z" />
    <glyph glyph-name="ocircumflex" unicode="&#xf4;" 
d="M123 236q0 -180 137 -180q50 0 86 15q37 48 37 143q0 180 -137 180q-50 0 -86 -15q-37 -48 -37 -143zM38 222q0 115 64 175.5t157 60.5t151 -61t58 -169q0 -115 -64 -175.5t-157 -60.5t-151 61t-58 169zM108 577l120 111h40l120 -111l-19 -19l-121 59l-121 -59z" />
    <glyph glyph-name="otilde" unicode="&#xf5;" 
d="M123 236q0 -180 137 -180q50 0 86 15q37 48 37 143q0 180 -137 180q-50 0 -86 -15q-37 -48 -37 -143zM38 222q0 115 64 175.5t157 60.5t151 -61t58 -169q0 -115 -64 -175.5t-157 -60.5t-151 61t-58 169zM88 579l52 99l20 5q26 0 93 -26.5t83 -25.5l55 47l17 -11l-52 -99
l-20 -5q-26 0 -93 26.5t-83 25.5l-55 -47z" />
    <glyph glyph-name="odieresis" unicode="&#xf6;" 
d="M123 236q0 -180 137 -180q50 0 86 15q37 48 37 143q0 180 -137 180q-50 0 -86 -15q-37 -48 -37 -143zM38 222q0 115 64 175.5t157 60.5t151 -61t58 -169q0 -115 -64 -175.5t-157 -60.5t-151 61t-58 169zM94 617q0 23 15.5 39t39.5 16q23 0 39 -16t16 -39q0 -24 -16 -39.5
t-39 -15.5q-24 0 -39.5 15.5t-15.5 39.5zM292 617q0 23 15.5 39t39.5 16q23 0 39 -16t16 -39q0 -24 -16 -39.5t-39 -15.5q-24 0 -39.5 15.5t-15.5 39.5z" />
    <glyph glyph-name="divide" unicode="&#xf7;" horiz-adv-x="523" 
d="M47 309l12 45l405 2l11 -12l-11 -49q-375 2 -406 2zM209 479q0 22 15 37t37 15t37 -15t15 -37t-15 -37t-37 -15q-23 0 -37.5 14.5t-14.5 37.5zM209 172q0 22 15 37t37 15t37 -15t15 -37t-15 -37t-37 -15q-23 0 -37.5 15t-14.5 37z" />
    <glyph glyph-name="oslash" unicode="&#xf8;" 
d="M38 222q0 115 63.5 175.5t156.5 60.5q48 0 88 -17l36 67l55 12l12 -11l-57 -96q76 -61 76 -185q0 -115 -64 -175.5t-157 -60.5q-45 0 -83 15l-40 -75l-55 -12l-12 11l60 102q-79 63 -79 189zM123 236q0 -87 34 -133q90 157 155 276q-28 15 -66 15q-50 0 -86 -15
q-37 -48 -37 -143zM352 342q-120 -211 -154 -274q26 -12 61 -12q51 0 87 15q37 48 37 143q0 84 -31 128z" />
    <glyph glyph-name="ugrave" unicode="&#xf9;" horiz-adv-x="534" 
d="M448 450v-396l69 -24l-6 -22l-85 -16l-20 8l-32 28l-5 2q-69 -38 -142 -38q-144 0 -144 153v233l-70 11l-6 22l137 47l20 -8v-293q0 -51 23.5 -73.5t76.5 -22.5q51 0 103 13v304l-70 11l-6 22l137 47zM334 552l-211 77l43 55l20 4l161 -116z" />
    <glyph glyph-name="uacute" unicode="&#xfa;" horiz-adv-x="534" 
d="M448 450v-396l69 -24l-6 -22l-85 -16l-20 8l-32 28l-5 2q-69 -38 -142 -38q-144 0 -144 153v233l-70 11l-6 22l137 47l20 -8v-293q0 -51 23.5 -73.5t76.5 -22.5q51 0 103 13v304l-70 11l-6 22l137 47zM169 572l172 123l41 -52l-4 -20l-196 -71z" />
    <glyph glyph-name="ucircumflex" unicode="&#xfb;" horiz-adv-x="534" 
d="M448 450v-396l69 -24l-6 -22l-85 -16l-20 8l-32 28l-5 2q-69 -38 -142 -38q-144 0 -144 153v233l-70 11l-6 22l137 47l20 -8v-293q0 -51 23.5 -73.5t76.5 -22.5q51 0 103 13v304l-70 11l-6 22l137 47zM115 577l120 111h40l120 -111l-19 -19l-121 59l-121 -59z" />
    <glyph glyph-name="udieresis" unicode="&#xfc;" horiz-adv-x="534" 
d="M448 450v-396l69 -24l-6 -22l-85 -16l-20 8l-32 28l-5 2q-69 -38 -142 -38q-144 0 -144 153v233l-70 11l-6 22l137 47l20 -8v-293q0 -51 23.5 -73.5t76.5 -22.5q51 0 103 13v304l-70 11l-6 22l137 47zM101 617q0 23 15.5 39t39.5 16q23 0 39 -16t16 -39q0 -24 -16 -39.5
t-39 -15.5q-24 0 -39.5 15.5t-15.5 39.5zM299 617q0 23 15.5 39t39.5 16q23 0 39 -16t16 -39q0 -24 -16 -39.5t-39 -15.5q-24 0 -39.5 15.5t-15.5 39.5z" />
    <glyph glyph-name="yacute" unicode="&#xfd;" horiz-adv-x="521" 
d="M167 363l109 -257l112 290l-71 32l6 22h194l6 -22l-49 -21q-10 -4 -17.5 -12t-10 -13.5t-7.5 -18.5l-142 -351q-69 -170 -122 -250l-75 24l-8 20q105 113 141 193l-168 397l-71 32l6 22h220l6 -22l-45 -19q-28 -12 -14 -46zM172 572l172 123l41 -52l-4 -20l-196 -71z" />
    <glyph glyph-name="thorn" unicode="&#xfe;" 
d="M150 422v-1q67 37 137 37q88 0 134.5 -67t46.5 -164q0 -114 -63.5 -174.5t-158.5 -60.5q-46 0 -96 9v-175l79 -32l-6 -22h-224l-6 22l45 19q18 7 24.5 15t6.5 23v757l-70 11l-6 22l135 47l20 -8v-255zM150 376v-306q40 -14 99 -14q58 0 97 15q37 49 37 143
q0 175 -132 175q-49 0 -101 -13z" />
    <glyph glyph-name="ydieresis" unicode="&#xff;" horiz-adv-x="521" 
d="M167 363l109 -257l112 290l-71 32l6 22h194l6 -22l-49 -21q-10 -4 -17.5 -12t-10 -13.5t-7.5 -18.5l-142 -351q-69 -170 -122 -250l-75 24l-8 20q105 113 141 193l-168 397l-71 32l6 22h220l6 -22l-45 -19q-28 -12 -14 -46zM114 617q0 23 15.5 39t39.5 16q23 0 39 -16
t16 -39q0 -24 -16 -39.5t-39 -15.5q-24 0 -39.5 15.5t-15.5 39.5zM312 617q0 23 15.5 39t39.5 16q23 0 39 -16t16 -39q0 -24 -16 -39.5t-39 -15.5q-24 0 -39.5 15.5t-15.5 39.5z" />
    <glyph glyph-name="dotlessi" unicode="&#x131;" horiz-adv-x="271" 
d="M181 450v-396l79 -32l-6 -22h-224l-6 22l45 19q18 7 24.5 15t6.5 23v299l-70 11l-6 22l137 47z" />
    <glyph glyph-name="Lslash" unicode="&#x141;" horiz-adv-x="525" 
d="M26 222l-9 39q19 11 56 33t52 31v268l-86 35l6 22h245l6 -22l-55 -23q-18 -7 -24.5 -15t-6.5 -23v-190l86 55l14 -4l19 -52q-56 -31 -119 -66v-258l222 4l48 88l30 -7v-137h-465l-6 22l55 23q18 7 24.5 15t6.5 23v179l-83 -45z" />
    <glyph glyph-name="lslash" unicode="&#x142;" horiz-adv-x="281" 
d="M181 680v-276l68 44l15 -5l17 -51q-47 -25 -100 -55v-283l79 -32l-6 -22h-224l-6 22l45 19q18 7 24.5 15t6.5 23v213q-26 -14 -70 -39l-16 5l-9 40l95 56v254l-70 11l-6 22l137 47z" />
    <glyph glyph-name="OE" unicode="&#x152;" horiz-adv-x="991" 
d="M46 320q0 111 45.5 189t115 113t153.5 35q130 0 206 -88v71l10 10h365v-137l-30 -7l-48 88l-185 4q-27 0 -27 -30v-216q47 0 103.5 3t89.5 6l32 3l11 -12l-11 -56q-119 7 -225 7v-251l217 4l48 88l30 -7v-137h-370l-10 10v77q-82 -95 -221 -95q-134 0 -216.5 87.5
t-82.5 240.5zM139 339q0 -135 56.5 -210t163.5 -75q89 0 145 37q33 44 45 82t16 117l1 17q5 129 -54 208t-166 79q-87 0 -145 -37q-62 -85 -62 -218z" />
    <glyph glyph-name="oe" unicode="&#x153;" horiz-adv-x="800" 
d="M38 222q0 114 63.5 175t152.5 61q58 0 105 -25.5t69 -68.5q24 43 72.5 68.5t102.5 25.5q75 0 117.5 -50t42.5 -135v-33l-15 -15h-280q2 -77 43 -123t111 -46q59 0 118 26l14 -26q-11 -12 -29 -24.5t-54 -26t-75 -13.5q-57 0 -104.5 25.5t-68.5 67.5q-23 -42 -72.5 -67.5
t-107.5 -25.5q-89 0 -147 61.5t-58 168.5zM123 236q0 -180 137 -180q50 0 86 15q37 47 37 140v11q-3 172 -137 172q-50 0 -86 -15q-37 -48 -37 -143zM582 394q-47 0 -77 -15q-12 -15 -23.5 -48t-12.5 -63l214 6q0 120 -101 120z" />
    <glyph glyph-name="Scaron" unicode="&#x160;" horiz-adv-x="517" 
d="M368 484l-5 94q-33 18 -93 18q-79 0 -123 -37q-12 -19 -12 -55q0 -77 82 -108l130 -50q128 -49 128 -177q0 -87 -61 -132t-158 -45q-134 0 -221 82l64 109l24 -7l15 -96q37 -26 114 -26q63 0 102.5 24t39.5 77q0 41 -26 67t-81 47l-115 44q-117 45 -117 162
q0 88 62 135.5t158 47.5q117 0 188 -82l-71 -99zM235 728l-120 111l19 19l121 -59l121 59l19 -19l-120 -111h-40z" />
    <glyph glyph-name="scaron" unicode="&#x161;" horiz-adv-x="401" 
d="M275 324l-8 70q-23 10 -60 10q-58 0 -82 -24q-9 -14 -9 -33q0 -42 51 -61l102 -36q43 -15 69 -48.5t26 -78.5q0 -63 -48 -97t-118 -34q-59 0 -102.5 21.5t-63.5 45.5l51 83l25 -7l4 -67q35 -20 89 -20q91 0 91 62q0 25 -16 40t-52 27l-92 30q-41 14 -63 46t-22 72
q0 63 50 98t116 35q40 0 75 -15.5t47.5 -27t18.5 -20.5l-55 -78zM178 558l-120 111l19 19l121 -59l121 59l19 -19l-120 -111h-40z" />
    <glyph glyph-name="Ydieresis" unicode="&#x178;" horiz-adv-x="598" 
d="M179 567l136 -202l148 228l-86 35l6 22h224l6 -22l-55 -23q-12 -5 -19.5 -11t-12 -11t-11.5 -16l-172 -266v-244l86 -35l-6 -22h-245l-6 22l55 23q18 7 24.5 15t6.5 23v215l-198 298l-70 32l6 22h241l6 -22l-47 -23q-32 -15 -17 -38zM137 787q0 23 15.5 39t39.5 16
q23 0 39 -16t16 -39q0 -24 -16 -39.5t-39 -15.5q-24 0 -39.5 15.5t-15.5 39.5zM355 787q0 23 15.5 39t39.5 16q23 0 39 -16t16 -39q0 -24 -16 -39.5t-39 -15.5q-24 0 -39.5 15.5t-15.5 39.5z" />
    <glyph glyph-name="Zcaron" unicode="&#x17d;" horiz-adv-x="553" 
d="M508 650l6 -33l-369 -565l284 2l49 90l30 -7v-137h-477l-6 29l374 569l-264 -2l-49 -90l-30 7v137h452zM259 728l-120 111l19 19l121 -59l121 59l19 -19l-120 -111h-40z" />
    <glyph glyph-name="zcaron" unicode="&#x17e;" horiz-adv-x="429" 
d="M383 450l6 -33l-256 -371l184 4l48 84l24 -7v-127h-355l-6 29l259 375l-167 -4l-48 -84l-24 7v117l10 10h325zM193 558l-120 111l19 19l121 -59l121 59l19 -19l-120 -111h-40z" />
    <glyph glyph-name="florin" unicode="&#x192;" horiz-adv-x="524" 
d="M426 564l-3 72q-68 0 -104 -20q-18 -24 -48 -187h109l11 -12l-9 -38l-110 4h-9l-53 -286q-12 -67 -56 -117.5t-112 -70.5l-10 21q76 59 98 176l50 276l-65 -1l-7 22l83 37q44 248 206 248q78 0 113 -49l-60 -82z" />
    <glyph glyph-name="dotlessj" unicode="&#x237;" horiz-adv-x="239" 
d="M170 450v-450q0 -80 -38.5 -140.5t-104.5 -97.5l-14 18q76 89 76 212v386l-70 11l-6 22l137 47z" />
    <glyph glyph-name="circumflex" unicode="&#x2c6;" horiz-adv-x="360" 
d="M40 577l120 111h40l120 -111l-19 -19l-121 59l-121 -59z" />
    <glyph glyph-name="caron" unicode="&#x2c7;" horiz-adv-x="360" 
d="M160 558l-120 111l19 19l121 -59l121 59l19 -19l-120 -111h-40z" />
    <glyph glyph-name="dotaccent" unicode="&#x2d9;" horiz-adv-x="178" 
d="M34 623q0 23 15.5 39t39.5 16q23 0 39 -16t16 -39q0 -24 -16 -39.5t-39 -15.5q-24 0 -39.5 15.5t-15.5 39.5z" />
    <glyph glyph-name="ring" unicode="&#x2da;" horiz-adv-x="372" 
d="M147 626q0 -53 43 -53q13 0 20 5q15 11 15 42q0 53 -43 53q-13 0 -20 -5q-15 -11 -15 -42zM90 621q0 41 27.5 64.5t70.5 23.5q42 0 68 -23.5t26 -61.5q0 -40 -28 -63.5t-71 -23.5q-42 0 -67.5 23t-25.5 61z" />
    <glyph glyph-name="tilde" unicode="&#x2dc;" horiz-adv-x="397" 
d="M37 579l52 99l20 5q26 0 93 -26.5t83 -25.5l55 47l17 -11l-52 -99l-20 -5q-26 0 -93 26.5t-83 25.5l-55 -47z" />
    <glyph glyph-name="endash" unicode="&#x2013;" horiz-adv-x="601" 
d="M63 217l12 39q97 0 211 2t180 4l65 3l11 -12l-11 -56q-396 8 -457 8z" />
    <glyph glyph-name="emdash" unicode="&#x2014;" horiz-adv-x="883" 
d="M62 217l12 39q151 0 336 2.5t295 5.5l110 2l11 -12l-11 -60q-652 11 -742 11z" />
    <glyph glyph-name="quoteleft" unicode="&#x2018;" horiz-adv-x="201" 
d="M157 484l-56 -26h-20q-13 13 -23.5 38.5t-10.5 51.5q0 43 29.5 80t72.5 60l16 -18q-57 -45 -57 -93q0 -42 46 -73z" />
    <glyph glyph-name="quoteright" unicode="&#x2019;" horiz-adv-x="204" 
d="M55 662l56 26h20q13 -13 23.5 -38.5t10.5 -51.5q0 -43 -29.5 -80t-72.5 -60l-16 18q57 45 57 93q0 42 -46 73z" />
    <glyph glyph-name="quotesinglbase" unicode="&#x201a;" horiz-adv-x="211" 
d="M51 77l56 26h20q13 -13 23.5 -38.5t10.5 -51.5q0 -43 -29.5 -80t-72.5 -60l-16 18q57 45 57 93q0 42 -46 73z" />
    <glyph glyph-name="quotedblleft" unicode="&#x201c;" horiz-adv-x="361" 
d="M157 484l-56 -26h-20q-13 13 -23.5 38.5t-10.5 51.5q0 43 29.5 80t72.5 60l16 -18q-57 -45 -57 -93q0 -42 46 -73zM317 484l-56 -26h-20q-13 13 -23.5 38.5t-10.5 51.5q0 43 29.5 80t72.5 60l16 -18q-57 -45 -57 -93q0 -42 46 -73z" />
    <glyph glyph-name="quotedblright" unicode="&#x201d;" horiz-adv-x="364" 
d="M55 662l56 26h20q13 -13 23.5 -38.5t10.5 -51.5q0 -43 -29.5 -80t-72.5 -60l-16 18q57 45 57 93q0 42 -46 73zM215 662l56 26h20q13 -13 23.5 -38.5t10.5 -51.5q0 -43 -29.5 -80t-72.5 -60l-16 18q57 45 57 93q0 42 -46 73z" />
    <glyph glyph-name="quotedblbase" unicode="&#x201e;" horiz-adv-x="371" 
d="M51 77l56 26h20q13 -13 23.5 -38.5t10.5 -51.5q0 -43 -29.5 -80t-72.5 -60l-16 18q57 45 57 93q0 42 -46 73zM211 77l56 26h20q13 -13 23.5 -38.5t10.5 -51.5q0 -43 -29.5 -80t-72.5 -60l-16 18q57 45 57 93q0 42 -46 73z" />
    <glyph glyph-name="dagger" unicode="&#x2020;" horiz-adv-x="473" 
d="M448 420l-11 -72q-14 1 -46.5 5t-64.5 7.5t-59 4.5q4 -79 15 -177q-15 -158 -27 -389h-41q-12 241 -28 390q12 80 19 176q-57 -3 -165 -15l-14 14l11 72q120 -15 168 -17q0 5 -22 200l92 10l14 -13q-20 -157 -22 -197q67 3 167 17z" />
    <glyph glyph-name="daggerdbl" unicode="&#x2021;" horiz-adv-x="498" 
d="M460 420l-11 -72q-14 1 -46.5 5t-64.5 7.5t-59 4.5q5 -63 18 -141q-13 -86 -18 -141q67 3 167 17l14 -16l-11 -72q-14 1 -46.5 5t-64.5 7.5t-59 4.5q6 -101 24 -215l-92 -10l-14 13q14 112 20 212q-57 -3 -165 -15l-14 14l11 72q120 -15 168 -17q-4 71 -16 142
q12 69 16 140q-57 -3 -165 -15l-14 14l11 72q120 -15 168 -17q0 5 -22 200l92 10l14 -13q-20 -157 -22 -197q67 3 167 17z" />
    <glyph glyph-name="bullet" unicode="&#x2022;" horiz-adv-x="335" 
d="M76 318q0 39 26 65.5t65 26.5t65.5 -26.5t26.5 -65.5t-26.5 -65t-65.5 -26q-40 0 -65.5 25.5t-25.5 65.5z" />
    <glyph glyph-name="ellipsis" unicode="&#x2026;" horiz-adv-x="634" 
d="M52 47q0 23 15.5 39t39.5 16q23 0 39 -16t16 -39q0 -24 -16 -39.5t-39 -15.5q-24 0 -39.5 15.5t-15.5 39.5zM262 47q0 23 15.5 39t39.5 16q23 0 39 -16t16 -39q0 -24 -16 -39.5t-39 -15.5q-24 0 -39.5 15.5t-15.5 39.5zM472 47q0 23 15.5 39t39.5 16q23 0 39 -16t16 -39
q0 -24 -16 -39.5t-39 -15.5q-24 0 -39.5 15.5t-15.5 39.5z" />
    <glyph glyph-name="perthousand" unicode="&#x2030;" horiz-adv-x="928" 
d="M397 145q0 82 43.5 127t101.5 45q36 0 65.5 -18t44.5 -47q18 28 49.5 46.5t67.5 18.5q53 0 91.5 -39.5t38.5 -115.5q0 -81 -43 -121.5t-102 -40.5q-38 0 -67.5 16.5t-43.5 41.5q-17 -25 -48 -41.5t-69 -16.5q-54 0 -91.5 35t-37.5 110zM37 478q0 82 43.5 127t105.5 45
q56 0 94.5 -39.5t38.5 -115.5q0 -81 -43 -121.5t-106 -40.5q-58 0 -95.5 35t-37.5 110zM459 164q0 -117 85 -117q32 0 54 11q18 39 18 94q0 118 -84 118q-32 0 -54 -11q-19 -40 -19 -95zM99 497q0 -117 85 -117q32 0 54 11q18 39 18 94q0 118 -84 118q-32 0 -54 -11
q-19 -40 -19 -95zM679 163q0 -116 85 -116q32 0 54 11q18 39 18 94q0 118 -84 118q-32 0 -54 -11q-19 -40 -19 -96zM611 638l12 -11q-242 -307 -458 -600l-64 -15l-12 11q242 307 458 600z" />
    <glyph glyph-name="guilsinglleft" unicode="&#x2039;" horiz-adv-x="309" 
d="M237 9l-207 201v30l207 201l36 -32l-141 -184l141 -184z" />
    <glyph glyph-name="guilsinglright" unicode="&#x203a;" horiz-adv-x="309" 
d="M279 210l-207 -201l-36 32l141 184l-141 184l36 32l207 -201v-30z" />
    <glyph glyph-name="fraction" unicode="&#x2044;" horiz-adv-x="523" 
d="M517 638l12 -11q-242 -307 -458 -600l-64 -15l-12 11q242 307 458 600z" />
    <glyph glyph-name="Euro" unicode="&#x20ac;" horiz-adv-x="609" 
d="M40 349l11 40h60q21 120 100.5 184.5t177.5 64.5q48 0 89.5 -17.5t58 -33t19.5 -22.5l-51 -87l-22 6l-5 82q-35 12 -91 12q-64 0 -112 -21q-66 -57 -82 -168l280 4l10 -12l-10 -43h-423zM31 239l12 39h411l11 -12l-11 -43q-126 2 -247 3q25 -78 79.5 -117t122.5 -39
q38 0 81.5 11t60.5 20l14 -28q-20 -20 -73.5 -40.5t-113.5 -20.5q-95 0 -166 56.5t-96 158.5h-74z" />
    <glyph glyph-name="trademark" unicode="&#x2122;" horiz-adv-x="644" 
d="M552 622v-166l29 -7l-1 -21h-96l-2 22l24 7v122h-3l-63 -144l-23 -7l-14 4l-68 156h-2v-132l24 -6l-2 -22h-83l-3 21l29 7l-1 166l-28 6v22h88l9 -6l62 -149l67 155h85l2 -22zM254 650v-59l-21 -3l-17 31h-32v-163l29 -7l-3 -21h-100l-2 21l30 7v163h-35q-11 -20 -16 -31
l-19 3v59h186z" />
    <glyph glyph-name="minus" unicode="&#x2212;" horiz-adv-x="534" 
d="M63 309l12 45l385 2l11 -12l-11 -49q-355 2 -386 2z" />
    <glyph glyph-name="STM" horiz-adv-x="1099" 
d="M995 544q11 -1 15.5 -11.5t1.5 -23.5q-6 -15 -16 -20q9 -11 2 -26q-6 -14 -18 -17q8 -8 0 -27q-5 -12 -17 -14q5 -9 -4 -25q-8 -14 -19 -15q3 -11 -7 -22q-11 -13 -21 -13q4 -10 -7 -22q-11 -14 -25 -11q4 -11 -9 -22q-13 -12 -26 -9q3 -8 -12 -19q-16 -12 -27 -6
q0 -8 -14 -17q-17 -10 -26 -5q-1 -11 -17 -16q-15 -5 -24 0q-2 -11 -18 -14q8 -8 12 -14q11 -16 28 -11l138 44q26 8 34 -14l30 -84l9 1l1 -7l-10 -6l-9 -2l-2 2l-14 -8h-17q-1 0 -1.5 -1t-3.5 -3.5t-8 -4.5q-20 -8 -26 11l-20 65l-105 -30q-9 -3 -17 0q0 -27 -49 -111
l48 -13l11 8l6 -5l-118 -136l-5 4l96 120l-55 14q3 8 18.5 35.5t25 51.5t9.5 44q0 36 -22 47l-12 6q-3 -11 -23 -13q-19 -2 -25 7q-4 -10 -21 -10q-28 0 -28 18l2 100h12q-3 -89 -3 -91q2 -8 5 -10.5t11 -2.5q16 2 16 10l-5 93l8 1q8 -88 10 -89q1 -14 17 -12q9 1 14 4t3 9
l-17 91l8 1q7 -31 21 -87q3 -13 19 -10q15 7 12 14l-27 89l8 2q28 -81 29 -82q4 -13 18 -7q14 3 14 15l-38 82l8 5q37 -78 37 -80q8 -11 21 -5q10 4 10 19l-45 76l7 5q46 -74 47 -76q5 -7 21 -1q12 12 5 20l-50 70l7 5q35 -48 54 -66q12 -10 21 0q12 12 4 19l-59 64l7 7
q58 -62 60 -62q10 -6 20 4t3 18l-67 57l7 7q63 -51 64 -53q12 -7 20 4q11 15 2 19l-71 49l5 9q69 -45 70 -47q12 -7 21 5q6 17 0 21l-78 42l4 7q68 -33 74 -37q14 -6 21 7q9 17 -3 20l-81 33l3 8q77 -27 79 -29q13 -3 18 11q7 16 -6 20l-84 22l4 9q78 -19 82 -19
q13 -3 17 12q3 16 -9 17l-189 28q-12 1 -22 -10t-10 -28v-15q0 -60 -45 -92t-110 -32q-37 0 -60.5 12.5t-29.5 12.5q-19 0 -32 -21.5t-16 -42.5l20 7l4 -11q-164 -58 -170 -59q-9 -4 -5 -16q2 -9 13 -9l53 18l3 -6q-46 -18 -53 -20q-9 -5 -5 -16q4 -12 12 -9l56 26l2 -7
q-48 -26 -53 -27q-8 -5 -4 -15q6 -11 13 -6l136 71l5 -8q-34 -21 -69 -38q0 -46 144 -59q34 -2 34 -26q0 -16 -17.5 -69t-17.5 -69q0 -25 35 -25q1 0 22 -0.5t22 -0.5l10 9l7 -3l-10 -13l-78 -106l-92 26l-29 -67q6 -5 9 -7q9 -6 13 4l19 43l9 -3l-18 -50q1 -4 9 -7
q11 -4 14 4l17 48l12 -3l-19 -49q-3 -16 -25 -9q-5 2 -8.5 4.5t-4.5 4.5l-1 1q-9 -1 -16 2t-12 10l-1 -4l-11 4l-10 7l2 4l8 -1q20 51 30 69q4 8 17 5l85 -22l66 91h-33q-51 0 -51 32q0 9 3 24.5t6 25.5l3 11l-49 3l7 -40h11l1 -7l-163 -41l-2 8l139 40q-4 25 -10 54l72 -7
q17 64 17 68q0 15 -22 15q-66 -18 -122 -36q-41 -14 -21 -40q10 -13 36 -36l15 3l3 -7l-146 -52l-63 78l-61 -40q0 -6 4 -10q6 -9 12 -3l42 25l5 -10l-43 -29q0 -6 2 -12q7 -9 14 -3l42 28l7 -10l-42 -30q-7 -5 -15 -1.5t-12 9.5q-4 7 -4 17q-9 5 -13 11q-2 2 -3 7.5t-2 7.5
l-3 -3l-6 8l-5 12l5 3l7 -5q6 4 59 36q12 7 19 -1l60 -71q40 16 106 40l-29 29q-17 17 -9.5 34.5t34.5 25.5q6 2 46 13t50 15h1q-1 0 -1 1q-48 2 -86.5 19.5t-38.5 40.5q-51 -29 -56 -29q-19 -8 -28 10l-4 9l-71 -30q-9 -4 -5 -15l4 -8l-58 -22v-37l14 -5l-1 -9h-72l-1 9
l15 5v9q-13 1 -22 17q-14 24 4 31q-8 4 -10 13q-5 17 7 24q-5 3 -7 15q-3 13 -1 16.5t15 4.5q1 0 2 1t4 2.5t8 2.5v46h-40l-3 -14l-9 1v35q0 33 74 33q75 0 75 -33v-36h-8l-4 14h-40v-23q33 0 36 -10l4 -13l74 26q-5 6 -6 11q-9 20 11 28l94 31l9 38q-88 19 -105 23
q-18 4 -11 28q2 7 2 8q-42 16 -65 21q-20 9 -20 -15q-1 0 -23 5v-26h38l6 14l8 -1v-34q0 -32 -72 -32q-76 0 -76 32v27l-1 7l9 1l7 -14h36v34h-4.5t-4 0.5t-2.5 0.5h-2q-17 5 -12 26q0 6 7 15q-13 4 -7 23q4 10 9 13q-15 5 -7 24q5 20 23 15v32l-15 4l2 10h71l5 -10l-18 -4
v-21q12 2 18 2q16 0 18 -17l8 -53q20 -7 80 -27q0 3 3 12q7 22 24 15l96 -43l17 58l3 5q-34 -5 -50 -5q-36 0 -36 25l1 13l-1 10h86l-1 2q0 28 -14.5 38.5t-43.5 10.5q-15 0 -30 -2t-22 -4l-7 -3v1q-8 18 -8 38q0 42 53 42q39 0 66 -18l4 3q3 3 7 6t9.5 6.5t11 5t10.5 0.5
l79 -24q35 -8 38 1l1 3l-10 7l4 14l19 -7q1 -9 -2 -18q-7 -21 -37 -15l23 -216q20 3 33 18t19 42.5t7.5 44t2.5 45.5q1 38 30 41l201 23q12 1 19 -8.5t5 -21.5q0 -19 -9 -24q9 -4 9 -23q-2 -9 -5 -15zM607 397h4q-4 2 -4 5l-24 247h-3l-78 23q-11 2 -32 -15q5 -3 13 -11
q4 9 16 6l35 -10q14 -4 17 3q1 0 3 -0.5l2 -0.5q-2 -13 -19 -12q0 -4 -3 -9q-9 -15 -24 -9l-14 10l3 12l10 -5v-7q0 -3 4 -4q8 -2 11 8l1 3l3 2l-31 9q-4 2 -12 -6q-1 0 -8 6t-16.5 12t-26.5 11.5t-35 5.5q-44 0 -44 -34q0 -4 3 -22q21 9 54 9q67 0 67 -56v-22l-85 -1v-10
q0 -11 27 -11l55 3l4 -10l-51 -191q23 8 32 10q0 10 5 27.5t20 36.5t37 19q11 0 33 -11t51 -11zM825 588v8q83 1 85 1q13 3 13 18q0 8 -3 12t-10 3l-190 -21q-15 -1 -19 -8.5t-5 -22.5q0 -3 -1 -19.5t-1.5 -23t-2 -22t-3.5 -23t-6 -20.5t-9.5 -20t-12.5 -15t-17.5 -12.5
t-22.5 -6.5l2 -19h5q55 3 91.5 30.5t36.5 80.5v19q0 8 2.5 15t7 11.5t9.5 8t9.5 5t9 2.5t6.5 1l2 1q22 0 32 -5l2 -1q6 0 14.5 -2t18.5 -2q9 -2 39 -5q14 -5 16 14q2 15 -13 16zM324 226q-4 9 -2 16l-80 -31q-10 -2 -13 7l-4 11q-1 7 -3 8.5t-7 1.5h-11v-11h3v-7l-56 -8
q-11 0 -8 -15q2 -14 14 -9l47 11l2 -7q-58 -15 -61 -15q-5 -3 -3 -17q2 -13 14 -8l52 16l1 -5q-14 -5 -60 -23q-6 -2 -6 -10q3 -18 15 -25v14l86 32q-5 7 -3 15t11 11q10 8 81 35q-8 4 -9 13zM329 390l96 -24l23 78q-89 38 -93 41q-10 1 -14 -8q-4 -13 3 -19l52 -21l-2 -6
q-36 16 -50 20q-8 2 -10 0t-4 -10q-2 -13 3 -17l57 -16l-1 -7q-5 2 -54 16q-10 3 -14 -11q-3 -14 8 -16zM748 153q-14 -5 -23 1q1 -4 1 -16q9 -4 22 0q15 4 53 17t46 14q10 2 14 -8l19 -65q5 -9 13 -7l9 7l-16 58l8 3l21 -52q4 -8 12 -5l8 6l-27 84q-3 9 -22 9
q-13 -6 -138 -46zM408 -105h8l3 -7l-12 -5l-11 -2v5q-5 -6 -14 -9q-5 -1 -8 -0.5t-6 1.5l-3 1q-1 0 -1 -1.5t-3 -4t-10 -3.5q-22 -5 -26 12l-15 70l-22 8l1 7q2 -2 22 -5q10 -1 11 -9l17 -66q1 -11 12 -8l9 4l-12 63l9 1l16 -53q1 -9 11 -7l9 4l-11 51l-9 2l1 7l120 30l33 9
l1 -7l-17 -8l-115 -30zM628 -150l104 120l4 -4l-9 -17l-79 -90l40 -35l6 6l4 -5l-6 -10l-7 -8l-2 2q-2 -8 -7 -14q-3 -3 -6.5 -5t-5.5 -2.5t-2 -1.5q0 -7 -7 -13q-18 -18 -30 -6l-50 49l-20 -7l-3 6q12 7 17 10q8 5 15 -1l51 -46q7 -6 14 1l5 10l-43 43l5 6l44 -35
q6 -4 12 2l5 10l-38 33l-8 -3zM319 426q-3 7 -1 19q0 2 1.5 4.5t3.5 4.5t2 3l-80 28q-12 2 -13 9l-7 49q-1 14 -8 14q-3 0 -8.5 -2t-6.5 -2v-17l9 -4q15 -6 10 -29q-5 -9 -10 -11q5 -8 2 -21q-2 -7 -6 -11q8 -7 7 -21q-2 -4 -3 -5l9 -3v2q0 7 6 14.5t16 4.5q3 -1 33 -11.5
t44 -14.5zM240 392h-121v-11q0 -22 60 -22q61 0 61 22v11zM120 280h122v12q0 19 -61 19t-61 -19v-12zM310 560l-16 1q-6 10 -6 24q0 25 25 25q21 0 30 -25q5 -11 14 -11q7 0 12 9q14 14 24 14q22 0 22 -25h-8q0 5 -4 9.5t-9 4.5q-8 0 -18 -12q-5 -10 -21 -10q-21 0 -30 21
q-6 14 -15 14q-13 0 -13 -15q0 -4 1 -6l2 -3l10 -3v-12zM151 517l56 -19q3 1 6 8q6 12 -7 17q-40 19 -46 20q-10 2 -12 -9q-6 -13 3 -17zM206 472q2 15 -9 20q-39 14 -41 14q-10 1 -12 -8q-3 -17 5 -18l51 -16l1 2q1 1 2 3t3 3zM206 442q0 5 -1 8.5t-2.5 4t-5 1.5t-4.5 1
q-20 10 -35 13q-9 2 -14 -10q-2 -4 -0.5 -7l2 -4t3 -2t3.5 -2q2 0 9.5 -1.5t19.5 -4t20 -3.5q4 4 5 6zM193 270h-26v-46q16 2 26 2v44zM167 585v-35q11 -6 25 -9v44h-25zM193 88v32l-26 -9v-23h26zM167 433v-28h26v24q-18 2 -26 4z" />
    </font>
</defs>
</svg>
